<svg width="1160" height="716" viewBox="0 0 1160 716" fill="none" xmlns="http://www.w3.org/2000/svg">
<path d="M56.8 20.8C63.7333 17.0666 71.2 15.2 79.2 15.2C90.4 15.2 100.8 18.4 110.4 24.8C114.133 27.4666 117.6 30.1333 120.8 32.8C124 35.4666 126.933 37.8666 129.6 40C132.8 42.1333 137.067 44.2666 142.4 46.4C147.733 48.5333 152.267 50.6666 156 52.8C172 61.3333 195.467 74.6666 226.4 92.8L297.6 133.6C338.667 157.067 374.667 177.333 405.6 194.4L456.8 221.6C487.2 237.067 512.8 250.933 533.6 263.2C554.933 275.467 574.667 289.333 592.8 304.8C606.133 317.067 616.533 329.067 624 340.8C631.467 352.533 635.2 365.333 635.2 379.2L634.4 388C629.067 418.933 612.8 448.533 585.6 476.8C564.8 499.2 540.267 518.4 512 534.4C484.267 550.4 452.267 565.6 416 580C354.133 603.467 283.2 624.533 203.2 643.2C194.667 645.333 188.533 646.667 184.8 647.2L152 655.2L105.6 664C91.2 666.667 73.6 669.333 52.8 672C50.6667 672.533 46.6667 673.6 40.8 675.2C35.4667 676.267 30.6667 676.8 26.4 676.8C24.2667 676.8 21.0667 676.267 16.8 675.2C5.6 673.067 -2.26498e-06 666.4 -2.26498e-06 655.2C-2.26498e-06 647.733 2.66666 639.2 8 629.6C12.8 619.467 17.8667 611.467 23.2 605.6C39.2 586.933 62.6667 574.133 93.6 567.2C100 565.6 103.733 564 104.8 562.4C106.4 560.267 107.467 555.733 108 548.8C108 539.2 108.533 524.8 109.6 505.6C113.867 454.933 116.533 416.267 117.6 389.6C119.733 364 121.067 344.8 121.6 332C122.133 329.333 122.667 325.867 123.2 321.6C123.733 316.8 124 311.2 124 304.8C124 297.867 122.933 291.467 120.8 285.6C109.6 258.4 91.7333 224.8 67.2 184.8C67.2 185.333 67.4667 186.133 68 187.2C69.0667 187.733 69.8667 189.067 70.4 191.2C63.4667 178.933 52 161.067 36 137.6C33.8667 134.933 31.4667 131.467 28.8 127.2C26.1333 122.933 23.7333 119.467 21.6 116.8C20 115.2 17.8667 113.067 15.2 110.4C12.5333 107.2 10.4 104.533 8.8 102.4C6.13333 97.0666 4.8 92.2666 4.8 88C4.8 76.2666 10.6667 64 22.4 51.2C33.6 38.4 45.0667 28.2666 56.8 20.8ZM243.2 536C291.733 525.333 344.267 511.2 400.8 493.6C431.2 484 456 475.2 475.2 467.2C494.4 459.2 512.533 448.8 529.6 436C514.133 417.333 496.533 401.333 476.8 388C457.6 374.133 430.133 356.533 394.4 335.2L334.4 299.2L237.6 239.2C257.333 295.2 267.2 347.733 267.2 396.8C267.2 432.533 262.133 468 252 503.2L243.2 536ZM1066.09 364.8C1071.42 352 1074.09 340 1074.09 328.8C1074.09 294.133 1047.69 276.8 994.888 276.8C970.354 276.8 943.688 280.533 914.888 288C886.621 294.933 864.221 302.667 847.688 311.2C818.888 325.6 797.554 339.733 783.688 353.6C770.354 366.933 763.421 385.867 762.888 410.4C762.354 447.733 761.288 480.533 759.688 508.8C758.088 536.533 755.154 564 750.888 591.2C815.421 567.2 875.154 536.8 930.088 500C966.354 476 995.688 454.133 1018.09 434.4C1040.49 414.133 1056.49 390.933 1066.09 364.8ZM772.488 191.2C772.488 199.2 771.954 212.267 770.888 230.4C769.821 241.067 769.288 249.6 769.288 256L803.688 211.2C822.888 186.133 837.554 166.667 847.688 152.8C857.821 138.4 867.154 122.933 875.688 106.4C857.021 110.667 840.488 115.467 826.088 120.8C811.688 125.6 798.621 132 786.888 140C780.488 144.8 775.954 148.8 773.288 152C771.154 155.2 770.088 158.667 770.088 162.4C770.088 165.6 770.354 169.867 770.888 175.2C771.954 180.533 772.488 185.867 772.488 191.2ZM1075.69 169.6C1104.49 174.4 1125.55 185.6 1138.89 203.2C1152.75 220.8 1159.69 242.667 1159.69 268.8C1159.69 288 1155.69 310.4 1147.69 336C1126.89 401.6 1079.42 466.933 1005.29 532C947.154 581.6 882.621 624.533 811.688 660.8C788.754 673.067 762.621 685.333 733.288 697.6C703.954 709.867 678.888 716 658.088 716C642.088 716 631.421 711.2 626.088 701.6C623.954 697.867 622.888 693.6 622.888 688.8C622.888 682.4 624.488 676.533 627.688 671.2C630.888 665.333 635.954 657.333 642.888 647.2C650.888 636.533 655.954 628.533 658.088 623.2C662.888 609.333 665.288 590.133 665.288 565.6V546.4C665.288 542.133 665.021 537.067 664.487 531.2C664.487 525.333 664.754 518.933 665.288 512C669.554 454.4 672.488 411.2 674.088 382.4C674.088 374.933 674.354 368.533 674.888 363.2C675.421 357.333 675.954 352.267 676.488 348C677.021 342.667 677.554 336 678.088 328C678.621 320 678.888 310.667 678.888 300C678.888 288.8 678.088 278.133 676.488 268C674.354 254.133 671.154 243.733 666.888 236.8C666.354 235.2 663.688 232.267 658.888 228C654.621 223.2 652.221 219.733 651.688 217.6C651.154 215.467 650.888 212.533 650.888 208.8C650.888 191.2 661.021 166.4 681.288 134.4C687.154 125.333 693.021 117.6 698.888 111.2C704.754 104.8 711.154 100.267 718.088 97.6C720.221 96.5333 723.688 95.9999 728.488 95.9999C730.088 95.9999 732.221 95.9999 734.888 95.9999C738.088 95.9999 740.488 95.7333 742.088 95.2C747.954 93.0666 753.821 89.0666 759.688 83.2C766.088 77.3333 769.821 73.8666 770.888 72.8C776.754 66.9333 782.354 62.1333 787.688 58.4C804.754 46.1333 827.154 33.3333 854.888 20C882.621 6.66662 906.354 -5.53131e-05 926.088 -5.53131e-05C945.288 -5.53131e-05 957.554 7.73329 962.888 23.2C965.021 29.0666 966.088 35.4666 966.088 42.4C966.088 62.6666 959.154 84.8 945.288 108.8C931.421 132.267 913.288 158.667 890.888 188C887.688 192.8 882.354 200.267 874.888 210.4C932.488 181.067 986.888 166.4 1038.09 166.4C1051.95 166.4 1064.49 167.467 1075.69 169.6Z" fill="url(#paint0_angular_271_67)"/>
<defs>
<radialGradient id="paint0_angular_271_67" cx="0" cy="0" r="1" gradientUnits="userSpaceOnUse" gradientTransform="translate(587.5 441.5) rotate(90) scale(499.5 481.378)">
<stop offset="0.405" stop-color="#FB923C"/>
<stop offset="0.962864" stop-color="#4285F4"/>
</radialGradient>
</defs>
</svg>
