<svg width="1099" height="748" viewBox="0 0 1099 748" fill="none" xmlns="http://www.w3.org/2000/svg">
<path d="M122.4 191.2C128.8 191.733 132.8 193.333 134.4 196C136.533 198.667 138.133 203.2 139.2 209.6C140.8 214.933 140.8 218.933 139.2 221.6C138.133 223.733 135.2 226.4 130.4 229.6C126.133 232.267 122.667 233.067 120 232C117.867 230.4 114.933 228 111.2 224.8C106.4 221.067 102.4 218.133 99.2 216C96.5333 213.867 96.2667 209.867 98.4 204C101.067 197.6 104 193.867 107.2 192.8C110.933 191.2 116 190.667 122.4 191.2ZM79.2 192.8L80.8 201.6L72.8 206.4L65.6 200L69.6 191.2L79.2 192.8ZM276.8 194.4L281.6 199.2L280 208L272.8 203.2L270.4 196.8L276.8 194.4ZM307.2 195.2L313.6 198.4L308.8 204.8L303.2 203.2L300.8 197.6L307.2 195.2ZM214.4 199.2L212.8 205.6L204.8 207.2L204 198.4L209.6 196L214.4 199.2ZM155.2 196L161.6 198.4L158.4 207.2L151.2 203.2L148.8 197.6L155.2 196ZM366.4 202.4L369.6 211.2L361.6 214.4L356 210.4L358.4 204.8L366.4 202.4ZM324.8 203.2L328 207.2L324 211.2L316 209.6L319.2 202.4L324.8 203.2ZM401.6 208L402.4 217.6L393.6 221.6L388.8 214.4L392.8 208.8L401.6 208ZM256 242.4C256.533 250.4 257.067 257.067 257.6 262.4C258.667 267.733 255.2 271.733 247.2 274.4C239.2 277.6 233.6 277.333 230.4 273.6C227.2 269.333 222.933 264 217.6 257.6C213.867 252.8 212.267 248.8 212.8 245.6C213.333 241.867 215.2 237.333 218.4 232C223.2 225.067 226.667 218.933 228.8 213.6C230.933 208.267 236 206.667 244 208.8C252.533 211.467 256.533 215.467 256 220.8C255.467 226.133 255.467 233.333 256 242.4ZM184 213.6C186.667 216.8 188.267 219.467 188.8 221.6C189.867 223.2 189.067 225.6 186.4 228.8C182.667 233.6 177.333 234.933 170.4 232.8C165.067 230.667 162.4 226.4 162.4 220C162.4 216.267 163.2 214.133 164.8 213.6C166.4 212.533 168.8 211.733 172 211.2C177.867 209.067 181.867 209.867 184 213.6ZM64.8 212.8L64 219.2L57.6 222.4L54.4 216L58.4 209.6L64.8 212.8ZM296.8 219.2L290.4 225.6L284.8 224L283.2 218.4L288.8 216L296.8 219.2ZM341.6 218.4L344.8 224.8L341.6 229.6L335.2 228.8V220.8L341.6 218.4ZM320 224C324.8 227.2 326.667 231.2 325.6 236C324.533 238.667 323.2 240.267 321.6 240.8C320 241.333 317.867 241.6 315.2 241.6C311.467 241.6 308.533 241.6 306.4 241.6C304.8 241.6 303.467 240.267 302.4 237.6C300.8 233.867 300 230.933 300 228.8C300.533 226.667 302.4 224.267 305.6 221.6C308.267 219.467 310.4 218.933 312 220C314.133 220.533 316.8 221.867 320 224ZM436 233.6L432 244.8L419.2 241.6L418.4 228.8L429.6 227.2L436 233.6ZM395.2 232.8C401.067 238.133 404.8 242.667 406.4 246.4C408 250.133 407.2 255.733 404 263.2C401.333 270.133 397.867 273.867 393.6 274.4C389.867 274.933 384.267 274.933 376.8 274.4C369.333 273.867 363.467 273.067 359.2 272C355.467 270.4 352.8 265.867 351.2 258.4C349.6 251.467 350.667 247.2 354.4 245.6C358.133 243.467 363.2 240.533 369.6 236.8C374.933 233.6 379.2 231.2 382.4 229.6C386.133 227.467 390.4 228.533 395.2 232.8ZM147.2 232.8L152 239.2L145.6 244L141.6 240L139.2 233.6L147.2 232.8ZM73.6 234.4C78.4 236 82.1333 237.6 84.8 239.2C87.4667 240.267 88.8 243.467 88.8 248.8C88.8 254.133 87.2 257.333 84 258.4C81.3333 258.933 77.6 260 72.8 261.6C68 263.2 64.2667 264.533 61.6 265.6C58.9333 266.133 56.2667 264.267 53.6 260C50.4 256.267 49.8667 253.333 52 251.2C54.1333 248.533 56.5333 245.333 59.2 241.6C61.3333 238.4 63.2 236.267 64.8 235.2C66.9333 233.6 69.8667 233.333 73.6 234.4ZM287.2 236L288.8 241.6L284.8 244.8L277.6 244L278.4 235.2L287.2 236ZM172.8 244L175.2 248.8L172 256L164 252.8L166.4 244.8L172.8 244ZM448.8 250.4L452 256.8L444.8 259.2L438.4 255.2L442.4 247.2L448.8 250.4ZM484.8 251.2L485.6 258.4L476.8 262.4L474.4 254.4L478.4 248.8L484.8 251.2ZM304.8 254.4L300 259.2L295.2 256.8L292.8 250.4L300 248.8L304.8 254.4ZM429.6 255.2L424 263.2L416.8 261.6L415.2 254.4L421.6 250.4L429.6 255.2ZM193.6 253.6L194.4 262.4L186.4 263.2L180 257.6L186.4 252L193.6 253.6ZM341.6 256.8L343.2 263.2L339.2 268L333.6 264.8L335.2 259.2L341.6 256.8ZM159.2 276C165.067 282.933 168 289.067 168 294.4C168.533 299.2 166.133 305.333 160.8 312.8C153.867 321.867 148.267 329.067 144 334.4C139.733 339.2 132.267 340 121.6 336.8C111.467 333.6 106.933 328.533 108 321.6C109.067 314.667 109.6 305.867 109.6 295.2C109.6 287.2 110.4 281.333 112 277.6C113.6 273.867 118.133 270.667 125.6 268C133.6 265.333 139.733 264.267 144 264.8C148.8 264.8 153.867 268.533 159.2 276ZM317.6 271.2L316.8 279.2L308 278.4L305.6 271.2L312 264.8L317.6 271.2ZM189.6 268L192.8 274.4L189.6 279.2L184.8 278.4L181.6 272L189.6 268ZM430.4 275.2C432 277.867 432 279.733 430.4 280.8C429.333 281.867 428 283.733 426.4 286.4C423.733 289.6 420.8 290.667 417.6 289.6C414.4 288.533 412.8 285.867 412.8 281.6C412.8 278.4 412.8 276 412.8 274.4C413.333 272.8 414.933 271.733 417.6 271.2C422.933 269.6 427.2 270.933 430.4 275.2ZM294.4 278.4V283.2H289.6L287.2 279.2L290.4 273.6L294.4 278.4ZM472.8 276.8C477.6 279.467 480.267 282.4 480.8 285.6C481.333 288.267 481.067 292.267 480 297.6C478.933 302.933 477.6 306.933 476 309.6C474.4 311.733 470.933 313.067 465.6 313.6C459.2 314.133 454.133 314.4 450.4 314.4C447.2 313.867 444.267 310.667 441.6 304.8C438.933 298.933 438.933 294.933 441.6 292.8C444.267 290.133 447.733 286.667 452 282.4C456.267 279.2 459.467 276.8 461.6 275.2C464.267 273.6 468 274.133 472.8 276.8ZM276 276L274.4 282.4L268.8 284L269.6 275.2L276 276ZM510.4 284L508 292L499.2 289.6L498.4 280.8L506.4 277.6L510.4 284ZM356.8 283.2L356 293.6L348 297.6L344 290.4L346.4 281.6L356.8 283.2ZM73.6 286.4C76.8 288 79.4667 289.333 81.6 290.4C83.7333 291.467 84.2667 293.867 83.2 297.6C82.6667 301.333 81.0667 303.2 78.4 303.2C76.2667 302.667 73.3333 302.667 69.6 303.2C65.8667 303.2 63.2 301.067 61.6 296.8C60.5333 294.133 59.7333 292 59.2 290.4C59.2 288.8 60.2667 287.2 62.4 285.6C65.0667 282.933 68.8 283.2 73.6 286.4ZM328 289.6V295.2L320.8 299.2L317.6 291.2L322.4 284L328 289.6ZM216.8 288.8C218.933 291.467 220.267 293.6 220.8 295.2C221.867 296.8 221.6 298.933 220 301.6C216.8 306.4 212.267 308.267 206.4 307.2C203.2 306.133 201.067 304.8 200 303.2C199.467 301.6 199.2 299.2 199.2 296C199.2 293.333 199.733 291.733 200.8 291.2C202.4 290.667 204.533 289.867 207.2 288.8C209.333 287.733 210.933 287.2 212 287.2C213.6 286.667 215.2 287.2 216.8 288.8ZM241.6 292.8L236 299.2L228.8 296.8L229.6 290.4L235.2 287.2L241.6 292.8ZM303.2 293.6L301.6 300L296 302.4L290.4 296.8L295.2 288.8L303.2 293.6ZM278.4 302.4C281.067 305.067 281.6 307.467 280 309.6C277.867 313.333 275.2 314.933 272 314.4C267.2 313.333 264.533 310.933 264 307.2C263.467 304 265.6 301.333 270.4 299.2C273.067 298.133 275.733 299.2 278.4 302.4ZM340 304.8L344.8 308.8L339.2 312L332 311.2L335.2 304.8H340ZM528.8 311.2L527.2 315.2L520.8 316.8L518.4 309.6L524.8 306.4L528.8 311.2ZM433.6 336.8C434.667 348 432.8 355.733 428 360C423.733 363.733 416.267 368 405.6 372.8C397.067 376.533 390.667 377.333 386.4 375.2C382.133 372.533 376.8 368 370.4 361.6C363.467 354.133 358.4 348 355.2 343.2C352.533 338.4 353.6 331.733 358.4 323.2C363.2 314.133 368.267 309.067 373.6 308C379.467 306.933 387.467 307.467 397.6 309.6C408.267 311.733 416.533 314.133 422.4 316.8C428.267 318.933 432 325.6 433.6 336.8ZM312.8 316.8L307.2 326.4L300 320.8L296.8 312.8L305.6 310.4L312.8 316.8ZM240.8 316L237.6 322.4L229.6 323.2L226.4 314.4L234.4 312.8L240.8 316ZM217.6 320.8C222.4 324.533 225.067 328 225.6 331.2C226.133 333.867 225.333 337.867 223.2 343.2C221.067 348.533 218.667 351.467 216 352C213.333 352 209.333 351.733 204 351.2C199.733 350.667 197.067 349.6 196 348C195.467 345.867 194.667 342.667 193.6 338.4C193.067 334.667 192.533 332 192 330.4C192 328.267 193.6 326.133 196.8 324C201.6 321.333 205.333 319.467 208 318.4C210.667 316.8 213.867 317.6 217.6 320.8ZM90.4 324.8L88 330.4L79.2 332L81.6 323.2L86.4 317.6L90.4 324.8ZM332.8 320V327.2L324 326.4V319.2L332.8 320ZM500.8 320C503.467 320.533 504.533 321.867 504 324C504 325.6 504.267 327.733 504.8 330.4C505.333 334.133 504.267 336.533 501.6 337.6C498.933 338.667 496.267 337.867 493.6 335.2C491.467 333.067 489.6 331.467 488 330.4C486.4 329.333 486.4 327.467 488 324.8C490.667 320.533 494.933 318.933 500.8 320ZM64 324L62.4 332.8L55.2 332L49.6 325.6L56.8 320.8L64 324ZM259.2 328.8L260.8 336L252.8 340L247.2 333.6L251.2 325.6L259.2 328.8ZM458.4 328L463.2 334.4L456 340.8L448.8 336L449.6 326.4L458.4 328ZM539.2 330.4L536 338.4L530.4 340.8L527.2 335.2L529.6 328L539.2 330.4ZM71.2 337.6L76.8 344.8L75.2 354.4L65.6 350.4L64.8 342.4L71.2 337.6ZM483.2 340.8L477.6 347.2L469.6 346.4V338.4L476 337.6L483.2 340.8ZM335.2 344.8L330.4 349.6H323.2V341.6L330.4 338.4L335.2 344.8ZM178.4 355.2C178.933 358.4 178.133 360.267 176 360.8C174.4 361.333 172 362.4 168.8 364C166.667 365.067 164.8 365.867 163.2 366.4C161.6 366.933 160 366.133 158.4 364C155.733 361.333 153.867 359.2 152.8 357.6C151.733 356 152 353.6 153.6 350.4C155.2 347.2 157.067 345.867 159.2 346.4C161.333 346.933 164 347.467 167.2 348C170.4 348.533 172.8 349.067 174.4 349.6C176.533 350.133 177.867 352 178.4 355.2ZM532.8 354.4C533.867 357.6 534.4 360.267 534.4 362.4C534.4 364 532.8 365.6 529.6 367.2C527.467 369.333 525.6 369.867 524 368.8C522.933 367.2 521.067 365.333 518.4 363.2C516.267 361.067 514.133 359.733 512 359.2C510.4 358.133 510.133 356.267 511.2 353.6C512.267 349.867 513.6 348 515.2 348C517.333 347.467 520 347.2 523.2 347.2C528.533 347.2 531.733 349.6 532.8 354.4ZM462.4 353.6L458.4 362.4L451.2 366.4L447.2 357.6L452 348L462.4 353.6ZM134.4 372C138.667 380 141.333 386.4 142.4 391.2C144 395.467 141.867 400.8 136 407.2C130.667 413.067 125.867 414.667 121.6 412C117.333 408.8 111.467 405.6 104 402.4C97.6 399.2 92.5333 396.8 88.8 395.2C85.0667 393.067 83.4667 388.533 84 381.6C85.0667 373.067 86.9333 366.933 89.6 363.2C92.2667 358.933 97.8667 356 106.4 354.4C114.4 352.8 120 353.6 123.2 356.8C126.4 360 130.133 365.067 134.4 372ZM500 356.8L504.8 360.8L502.4 366.4L495.2 368.8L494.4 360.8L500 356.8ZM64.8 363.2L66.4 370.4L61.6 376L56 370.4L56.8 362.4L64.8 363.2ZM225.6 372C229.867 376.8 230.667 381.867 228 387.2C225.333 392.533 221.067 394.933 215.2 394.4C212 393.867 210.133 392.8 209.6 391.2C209.067 389.067 208.533 386.4 208 383.2C207.467 380 207.2 377.6 207.2 376C207.2 374.4 208.533 373.067 211.2 372C214.4 370.4 216.8 369.6 218.4 369.6C220.533 369.067 222.933 369.867 225.6 372ZM484 376.8L480.8 382.4L474.4 380V374.4L480 369.6L484 376.8ZM548.8 382.4L542.4 381.6V375.2L548 374.4L548.8 382.4ZM191.2 378.4C193.867 381.067 196 383.2 197.6 384.8C199.733 386.4 200 388.8 198.4 392C196.8 395.733 194.933 398.133 192.8 399.2C190.667 399.733 187.467 399.733 183.2 399.2C179.467 398.667 177.333 397.6 176.8 396C176.267 393.867 175.733 390.933 175.2 387.2C174.133 381.867 175.733 378.4 180 376.8C183.733 374.667 187.467 375.2 191.2 378.4ZM512.8 378.4L512 384H507.2L504 380L508 376.8L512.8 378.4ZM458.4 389.6C461.067 391.733 462.133 393.867 461.6 396C461.6 397.6 461.067 399.733 460 402.4C457.867 407.2 454.133 409.333 448.8 408.8C443.467 408.267 440.267 405.6 439.2 400.8C438.667 397.067 438.4 394.133 438.4 392C438.4 389.867 440 387.733 443.2 385.6C446.933 384 449.6 383.733 451.2 384.8C453.333 385.333 455.733 386.933 458.4 389.6ZM58.4 389.6L57.6 396H50.4L48.8 389.6L53.6 385.6L58.4 389.6ZM556 396.8L554.4 405.6L545.6 402.4V395.2L552 389.6L556 396.8ZM528 393.6C532.267 395.733 534.667 398.133 535.2 400.8C535.733 403.467 535.733 407.467 535.2 412.8C534.667 416.533 533.333 418.667 531.2 419.2C529.067 419.733 525.867 420.533 521.6 421.6C518.4 422.133 515.733 422.4 513.6 422.4C511.467 421.867 509.6 420 508 416.8C506.4 413.6 506.133 411.2 507.2 409.6C508.267 408 510.133 405.867 512.8 403.2C516 400 518.133 397.333 519.2 395.2C520.8 392.533 523.733 392 528 393.6ZM409.6 400.8C413.867 401.867 416.267 403.733 416.8 406.4C417.867 408.533 418.667 411.733 419.2 416C419.733 421.867 417.067 426.133 411.2 428.8C407.467 430.4 404.267 431.733 401.6 432.8C399.467 433.333 396.8 432 393.6 428.8C390.4 424.533 388 421.067 386.4 418.4C385.333 415.733 386.133 412 388.8 407.2C391.467 402.933 394.133 400.533 396.8 400C400 399.467 404.267 399.733 409.6 400.8ZM378.4 403.2L375.2 408.8L367.2 412L368 403.2L372.8 400L378.4 403.2ZM237.6 412.8C238.667 416.533 238.667 419.2 237.6 420.8C236.533 422.4 234.667 424.267 232 426.4C228.8 428.533 226.133 430.133 224 431.2C221.867 431.733 219.2 430.667 216 428C212.8 425.867 210.933 423.733 210.4 421.6C210.4 419.467 211.2 416.533 212.8 412.8C213.867 408.533 215.2 405.6 216.8 404C218.4 402.4 221.067 401.6 224.8 401.6C229.067 401.6 232 402.4 233.6 404C235.2 405.6 236.533 408.533 237.6 412.8ZM76 409.6C77.0667 416 74.9333 420.8 69.6 424C66.9333 425.6 64.5333 426.133 62.4 425.6C60.8 424.533 58.6667 422.933 56 420.8C53.8667 418.667 52.2667 416.8 51.2 415.2C50.6667 413.6 50.9333 411.2 52 408C53.0667 405.333 54.4 404.267 56 404.8C58.1333 404.8 60.8 404.8 64 404.8C67.2 405.333 69.6 405.6 71.2 405.6C73.3333 405.6 74.9333 406.933 76 409.6ZM156 408.8L160 414.4L155.2 419.2L148 417.6L150.4 412L156 408.8ZM187.2 412.8L184.8 419.2L179.2 423.2L175.2 416.8L180 409.6L187.2 412.8ZM497.6 415.2L492.8 420H487.2L488 413.6L492 411.2L497.6 415.2ZM376 420.8L381.6 424.8L377.6 430.4L372 428.8L370.4 423.2L376 420.8ZM82.4 425.6L87.2 432.8L80.8 440L72 434.4L72.8 424.8L82.4 425.6ZM204 435.2C206.667 437.867 207.467 440.267 206.4 442.4C205.867 444 204.8 446.667 203.2 450.4C201.067 454.667 197.333 456.533 192 456C188.8 455.467 186.133 454.933 184 454.4C181.867 453.867 180.533 451.733 180 448C179.467 443.733 179.2 440.267 179.2 437.6C179.733 434.933 181.867 432.533 185.6 430.4C189.867 428.267 193.067 427.733 195.2 428.8C197.333 429.867 200.267 432 204 435.2ZM62.4 438.4L63.2 448L52.8 447.2L50.4 439.2L56 429.6L62.4 438.4ZM555.2 432.8L558.4 439.2L551.2 441.6L544.8 436.8L550.4 432L555.2 432.8ZM436.8 440.8H429.6L432 434.4L436.8 440.8ZM517.6 459.2C524.533 468.8 528.267 476.8 528.8 483.2C529.333 489.067 526.4 497.067 520 507.2C511.467 518.933 504.267 527.733 498.4 533.6C493.067 538.933 483.467 539.467 469.6 535.2C454.133 530.4 443.733 524.8 438.4 518.4C433.6 511.467 430.933 500 430.4 484C430.4 469.6 433.6 460.267 440 456C446.933 451.2 457.333 446.4 471.2 441.6C482.933 437.333 491.733 436.8 497.6 440C503.467 442.667 510.133 449.067 517.6 459.2ZM241.6 442.4L238.4 452L228.8 451.2L226.4 442.4L233.6 439.2L241.6 442.4ZM155.2 448.8C155.2 452 154.133 453.867 152 454.4C150.4 454.4 148.267 454.933 145.6 456C141.333 457.067 138.133 456.267 136 453.6C132.8 449.333 132.267 445.6 134.4 442.4C136.533 440.267 138.133 439.467 139.2 440C140.8 440 142.933 440.267 145.6 440.8C148.8 441.867 151.2 442.667 152.8 443.2C154.4 443.733 155.2 445.6 155.2 448.8ZM120 442.4L117.6 452.8L109.6 456.8L104.8 448.8L109.6 441.6L120 442.4ZM380 449.6L380.8 455.2L375.2 456.8L370.4 451.2L375.2 444.8L380 449.6ZM81.6 459.2L77.6 465.6L68.8 466.4L67.2 456L76.8 452.8L81.6 459.2ZM556 460.8L552 464.8L544.8 465.6L544 456.8L552 453.6L556 460.8ZM418.4 456C420.533 456.533 422.133 457.067 423.2 457.6C424.267 458.133 424.8 459.733 424.8 462.4C424.8 465.067 422.4 467.2 417.6 468.8C413.867 469.867 411.2 468.8 409.6 465.6C406.933 461.867 406.667 458.667 408.8 456C410.4 454.4 411.733 453.867 412.8 454.4C414.4 454.4 416.267 454.933 418.4 456ZM171.2 460.8L177.6 465.6L172.8 470.4L167.2 471.2L164.8 464.8L171.2 460.8ZM222.4 461.6L229.6 467.2L224 476L216 472L213.6 464L222.4 461.6ZM392 471.2L388.8 476L380.8 477.6V468.8L388 464L392 471.2ZM135.2 486.4C140.533 491.2 144.267 495.2 146.4 498.4C149.067 501.6 148.8 506.4 145.6 512.8C142.933 519.733 139.733 523.733 136 524.8C132.267 525.867 126.667 526.133 119.2 525.6C112.267 525.067 107.2 523.733 104 521.6C100.8 519.467 98.4 514.933 96.8 508C94.6667 498.933 93.3333 492 92.8 487.2C92.2667 481.867 95.7333 476.8 103.2 472C110.667 467.733 116.267 467.733 120 472C123.733 476.267 128.8 481.067 135.2 486.4ZM72 476.8L68.8 483.2L62.4 486.4L60.8 479.2L64.8 473.6L72 476.8ZM562.4 481.6L557.6 488L549.6 486.4L551.2 479.2L556.8 474.4L562.4 481.6ZM417.6 481.6L420.8 492L417.6 501.6L409.6 495.2L407.2 487.2L417.6 481.6ZM195.2 484.8C198.4 485.867 200.533 486.933 201.6 488C203.2 488.533 204 490.4 204 493.6C204 496.8 203.467 499.467 202.4 501.6C201.867 503.2 200 504.533 196.8 505.6C190.4 507.733 185.333 506.4 181.6 501.6C177.333 496.267 177.067 490.933 180.8 485.6C182.933 482.4 185.067 481.333 187.2 482.4C189.333 483.467 192 484.267 195.2 484.8ZM377.6 488L383.2 495.2L377.6 502.4L368.8 500L369.6 491.2L377.6 488ZM395.2 489.6L399.2 496L394.4 503.2L387.2 499.2L388.8 492.8L395.2 489.6ZM228 491.2L231.2 500L228.8 505.6L219.2 507.2V496.8L228 491.2ZM559.2 496.8L558.4 503.2L551.2 504L550.4 496.8L555.2 492.8L559.2 496.8ZM66.4 507.2C69.6 510.4 70.6667 513.333 69.6 516C67.4667 519.733 64.2667 521.333 60 520.8C57.3333 520.267 55.2 519.733 53.6 519.2C52 518.133 50.9333 516.267 50.4 513.6C49.8667 509.333 52.2667 505.867 57.6 503.2C59.7333 502.133 61.3333 502.133 62.4 503.2C63.4667 503.733 64.8 505.067 66.4 507.2ZM407.2 512L402.4 519.2L394.4 518.4L392 509.6L400 508L407.2 512ZM427.2 520C428.267 522.667 427.467 525.333 424.8 528C423.2 529.6 421.867 530.933 420.8 532C419.733 532.533 418.4 532.267 416.8 531.2C414.133 529.6 412 528.267 410.4 527.2C408.8 526.133 408.267 524 408.8 520.8C409.333 517.6 410.4 515.733 412 515.2C413.6 514.133 416 513.333 419.2 512.8C421.867 512.267 423.467 512.8 424 514.4C425.067 516 426.133 517.867 427.2 520ZM551.2 520.8L549.6 528L542.4 524.8L540 519.2L546.4 514.4L551.2 520.8ZM176.8 519.2C180 520.267 181.6 521.6 181.6 523.2C182.133 524.8 182.4 527.2 182.4 530.4C182.4 535.733 180.267 538.933 176 540C171.2 541.6 167.2 540.267 164 536C161.867 532.8 162.133 529.067 164.8 524.8C166.933 522.133 168.533 520.267 169.6 519.2C171.2 518.133 173.6 518.133 176.8 519.2ZM215.2 525.6C215.733 529.333 214.667 532 212 533.6C209.333 535.2 207.2 536.533 205.6 537.6C204.533 538.667 202.933 538.133 200.8 536C198.133 533.867 196.8 532 196.8 530.4C197.333 528.267 198.133 525.867 199.2 523.2C200.267 520.533 201.6 519.2 203.2 519.2C204.8 518.667 206.933 518.667 209.6 519.2C212.267 519.733 214.133 521.867 215.2 525.6ZM76.8 534.4L74.4 540L68.8 540.8L67.2 534.4L72 530.4L76.8 534.4ZM400 548C401.067 554.933 398.4 560 392 563.2C388.8 564.8 386.133 565.333 384 564.8C382.4 563.733 380.267 561.867 377.6 559.2C373.867 556 370.667 553.6 368 552C365.867 549.867 365.867 546.4 368 541.6C370.667 536.8 373.333 533.867 376 532.8C378.667 531.2 382.667 530.667 388 531.2C393.333 532.267 396.267 534.133 396.8 536.8C397.867 539.467 398.933 543.2 400 548ZM551.2 540C552.267 542.667 552.267 544.533 551.2 545.6C550.133 546.667 548.533 548.267 546.4 550.4C544.267 552.533 542.4 554.133 540.8 555.2C539.733 555.733 538.133 555.2 536 553.6C533.333 552.533 532 551.2 532 549.6C532.533 548 533.067 545.867 533.6 543.2C534.133 541.067 534.4 539.2 534.4 537.6C534.933 536 536.533 534.933 539.2 534.4C545.067 533.867 549.067 535.733 551.2 540ZM232 545.6L230.4 550.4L224.8 552L221.6 545.6L228 540.8L232 545.6ZM446.4 548.8C450.667 551.467 453.6 554.133 455.2 556.8C456.8 558.933 456.8 562.133 455.2 566.4C453.6 571.2 451.2 573.6 448 573.6C445.333 573.067 441.867 572.8 437.6 572.8C431.733 572.8 426.933 573.333 423.2 574.4C420 574.933 417.6 572.533 416 567.2C414.4 561.867 415.2 558.667 418.4 557.6C422.133 556.533 426.133 554.4 430.4 551.2C434.133 548.533 436.8 546.933 438.4 546.4C440.533 545.333 443.2 546.133 446.4 548.8ZM481.6 548.8L483.2 556.8H475.2L469.6 552L475.2 546.4L481.6 548.8ZM194.4 551.2C200.8 553.333 204 557.6 204 564C204 569.867 200.533 573.6 193.6 575.2C190.4 576.267 188 576.267 186.4 575.2C184.8 574.133 182.933 572.267 180.8 569.6C178.667 565.867 176.8 562.933 175.2 560.8C173.6 558.667 174.133 555.733 176.8 552C179.467 548.8 181.867 547.467 184 548C186.667 548.533 190.133 549.6 194.4 551.2ZM79.2 549.6L83.2 555.2L80.8 560L73.6 560.8L74.4 553.6L79.2 549.6ZM160 552.8L157.6 561.6L149.6 559.2L145.6 552.8L152.8 550.4L160 552.8ZM107.2 556.8C109.333 557.867 110.133 559.2 109.6 560.8C109.6 561.867 109.333 563.467 108.8 565.6C107.733 568.267 107.2 570.667 107.2 572.8C107.2 574.933 105.867 576 103.2 576C100 576 98.1333 575.2 97.6 573.6C97.6 571.467 97.0667 569.067 96 566.4C94.9333 562.667 95.4667 560 97.6 558.4C101.333 555.733 104.533 555.2 107.2 556.8ZM133.6 556.8L136 567.2L124.8 572.8L119.2 563.2L124 556L133.6 556.8ZM63.2 560L66.4 569.6L58.4 572.8L49.6 570.4L55.2 562.4L63.2 560ZM237.6 566.4L235.2 574.4L227.2 577.6L221.6 568L230.4 562.4L237.6 566.4ZM512 566.4C518.933 569.6 521.867 573.333 520.8 577.6C520.267 581.867 519.733 587.733 519.2 595.2C518.133 603.2 517.6 609.867 517.6 615.2C518.133 620 514.4 623.2 506.4 624.8C497.867 626.4 492 625.6 488.8 622.4C485.6 618.667 481.867 613.067 477.6 605.6C473.867 598.667 471.733 593.067 471.2 588.8C471.2 584.533 473.867 579.467 479.2 573.6C485.067 567.733 490.133 564.267 494.4 563.2C498.667 562.133 504.533 563.2 512 566.4ZM544 572L548 575.2L547.2 583.2L538.4 581.6L537.6 573.6L544 572ZM140.8 576.8L144 580.8L140 586.4L132.8 583.2L133.6 574.4L140.8 576.8ZM405.6 576C408.267 577.6 409.6 579.467 409.6 581.6C410.133 583.2 410.133 585.6 409.6 588.8C409.067 594.133 406.4 597.333 401.6 598.4C398.4 598.933 395.733 599.2 393.6 599.2C391.467 599.2 389.6 597.6 388 594.4C386.4 591.2 385.867 588.8 386.4 587.2C386.933 585.067 388.533 582.667 391.2 580C395.467 575.2 400.267 573.867 405.6 576ZM220 580L220.8 587.2L214.4 591.2L212 584L214.4 579.2L220 580ZM93.6 586.4L92 592.8L84.8 593.6L82.4 587.2L87.2 582.4L93.6 586.4ZM345.6 584L344.8 595.2L340 593.6L339.2 588L345.6 584ZM379.2 592.8L374.4 602.4L363.2 603.2L360.8 592L370.4 584.8L379.2 592.8ZM240 593.6L236.8 601.6L228.8 598.4L226.4 590.4L235.2 588L240 593.6ZM201.6 591.2L203.2 596L199.2 600.8L193.6 597.6L194.4 589.6L201.6 591.2ZM75.2 592.8C77.8667 595.467 79.4667 597.6 80 599.2C80.5333 600.8 80 603.2 78.4 606.4C76.8 609.067 74.9333 610.4 72.8 610.4C71.2 610.4 68.8 610.133 65.6 609.6C59.7333 608 56.5333 605.067 56 600.8C56 598.133 56.5333 596.533 57.6 596C59.2 594.933 61.3333 593.867 64 592.8C66.6667 591.733 68.8 590.933 70.4 590.4C72 589.867 73.6 590.667 75.2 592.8ZM444.8 596.8C446.933 601.6 446.667 605.333 444 608C440.267 612.267 436.267 613.333 432 611.2C429.333 609.6 427.733 608 427.2 606.4C427.2 604.8 427.467 602.4 428 599.2C428.533 594.933 430.933 592.267 435.2 591.2C438.933 590.667 442.133 592.533 444.8 596.8ZM176.8 597.6C180 599.733 181.067 602.4 180 605.6C179.467 608.8 178.667 611.2 177.6 612.8C177.067 614.4 175.467 615.2 172.8 615.2C169.6 615.2 167.2 614.667 165.6 613.6C164.533 612 163.733 609.6 163.2 606.4C162.133 603.2 161.6 600.8 161.6 599.2C161.6 597.067 162.933 594.933 165.6 592.8C168.267 591.2 170.133 591.2 171.2 592.8C172.8 593.867 174.667 595.467 176.8 597.6ZM327.2 604.8C328.8 608.533 329.867 611.467 330.4 613.6C331.467 615.733 330.667 617.867 328 620C324.8 622.133 322.133 622.667 320 621.6C318.4 620 316 618.133 312.8 616C310.133 613.867 309.333 610.4 310.4 605.6C311.467 601.867 312 598.667 312 596C312 593.333 313.867 592 317.6 592C321.867 592 324.267 593.333 324.8 596C325.333 598.133 326.133 601.067 327.2 604.8ZM286.4 596.8L292 600L288 605.6H281.6L280 599.2L286.4 596.8ZM272 606.4C275.733 609.6 276.533 613.6 274.4 618.4C272.8 621.067 271.2 623.2 269.6 624.8C268.533 625.867 266.4 626.133 263.2 625.6C257.333 624.533 253.867 621.067 252.8 615.2C252.267 612.533 252.8 610.933 254.4 610.4C256.533 609.867 258.933 608.8 261.6 607.2C263.733 606.133 265.6 605.333 267.2 604.8C268.8 603.733 270.4 604.267 272 606.4ZM134.4 609.6C139.733 613.333 143.733 616.533 146.4 619.2C149.067 621.867 149.333 626.4 147.2 632.8C145.067 639.733 142.4 644.267 139.2 646.4C136 648 130.667 648.8 123.2 648.8C114.667 648.8 108 648.533 103.2 648C98.4 647.467 94.6667 643.2 92 635.2C89.3333 627.2 90.4 622.4 95.2 620.8C100.533 618.667 106.4 615.2 112.8 610.4C117.067 607.2 120.533 605.6 123.2 605.6C126.4 605.067 130.133 606.4 134.4 609.6ZM422.4 610.4C423.467 612.533 423.467 614.133 422.4 615.2C421.333 616.267 419.733 617.867 417.6 620C415.467 621.6 413.867 623.2 412.8 624.8C411.733 625.867 409.867 625.6 407.2 624C401.867 621.333 399.733 617.333 400.8 612C401.867 608.8 403.2 607.2 404.8 607.2C406.4 607.2 408.8 606.933 412 606.4C414.667 606.4 416.8 606.4 418.4 606.4C420 606.4 421.333 607.733 422.4 610.4ZM217.6 608L224 612L216.8 616.8L209.6 614.4L211.2 606.4L217.6 608ZM240.8 614.4L240 620H235.2L231.2 616L236 609.6L240.8 614.4ZM396 617.6C396.533 620.8 396.533 623.2 396 624.8C396 626.4 394.4 628 391.2 629.6C388.533 630.667 386.4 630.667 384.8 629.6C383.733 628.533 382.133 626.667 380 624C378.4 622.4 377.867 621.067 378.4 620C378.933 618.933 379.733 617.333 380.8 615.2C382.933 612 385.333 610.667 388 611.2C390.133 611.733 391.733 612.267 392.8 612.8C394.4 613.333 395.467 614.933 396 617.6ZM203.2 615.2L204.8 620.8L200.8 627.2L196 621.6L196.8 616.8L203.2 615.2ZM351.2 618.4C357.067 620 360 624.267 360 631.2C360 635.467 359.467 638.667 358.4 640.8C357.867 642.4 355.733 643.733 352 644.8C345.6 646.933 340.267 645.067 336 639.2C331.733 633.333 331.467 627.733 335.2 622.4C339.467 617.6 344.8 616.267 351.2 618.4ZM296.8 619.2V624L292.8 626.4L288.8 623.2L291.2 618.4L296.8 619.2ZM69.6 625.6L64 630.4L59.2 628.8L56 623.2L63.2 622.4L69.6 625.6ZM527.2 628.8L531.2 638.4L521.6 640.8L516 636L517.6 626.4L527.2 628.8ZM456 643.2C460.267 649.6 463.2 654.933 464.8 659.2C466.4 662.933 464.8 667.733 460 673.6C454.667 680 449.867 684 445.6 685.6C441.333 687.2 434.933 686.4 426.4 683.2C419.467 680.533 416.267 677.067 416.8 672.8C417.867 668 418.667 661.867 419.2 654.4C419.733 646.933 420 641.067 420 636.8C420 632.533 423.467 629.333 430.4 627.2C437.867 625.6 442.933 626.4 445.6 629.6C448.8 632.267 452.267 636.8 456 643.2ZM284 629.6L282.4 636L276 636.8L279.2 626.4L284 629.6ZM260 632L255.2 638.4L248.8 636L245.6 628.8H253.6L260 632ZM496.8 632L501.6 638.4V648H489.6L490.4 637.6L496.8 632ZM180.8 632.8L182.4 640L176.8 643.2L169.6 639.2L174.4 633.6L180.8 632.8ZM400.8 636L399.2 643.2L393.6 642.4L394.4 635.2L400.8 636ZM227.2 654.4C227.733 658.667 227.2 661.867 225.6 664C224 665.6 221.333 667.2 217.6 668.8C213.333 670.4 210.133 670.933 208 670.4C205.867 669.867 203.2 668 200 664.8C196.8 661.067 194.4 657.867 192.8 655.2C191.733 652.533 192.533 649.067 195.2 644.8C197.867 640 200.533 637.333 203.2 636.8C206.4 635.733 210.933 636 216.8 637.6C221.6 638.667 224.267 640.533 224.8 643.2C225.867 645.333 226.667 649.067 227.2 654.4ZM299.2 636C303.467 636.533 305.867 638.133 306.4 640.8C306.933 642.933 307.733 645.867 308.8 649.6C309.867 655.467 307.733 659.733 302.4 662.4C299.2 664.533 296.533 665.6 294.4 665.6C292.267 665.6 289.867 664.267 287.2 661.6C282.4 656.8 281.333 651.467 284 645.6C286.133 641.867 288 639.2 289.6 637.6C291.2 636 294.4 635.467 299.2 636ZM83.2 644L86.4 649.6L82.4 656.8L75.2 652L72.8 641.6L83.2 644ZM327.2 642.4L333.6 649.6L328 656H319.2L321.6 648L327.2 642.4ZM168.8 644.8L172.8 656L164 664L152.8 657.6L158.4 648L168.8 644.8ZM369.6 648V656.8L364 656L362.4 648.8L369.6 648ZM271.2 658.4C272.267 660.533 273.333 662.4 274.4 664C275.467 665.6 274.933 667.467 272.8 669.6C270.667 671.733 268.533 673.333 266.4 674.4C264.8 674.933 262.4 674.667 259.2 673.6C254.4 670.933 252.267 666.4 252.8 660C253.867 653.6 257.067 649.867 262.4 648.8C265.6 648.267 267.467 649.067 268 651.2C268.533 652.8 269.6 655.2 271.2 658.4ZM63.2 652L65.6 657.6L59.2 660.8L56 656L56.8 648.8L63.2 652ZM502.4 656.8L501.6 665.6L495.2 668L488 663.2L492.8 654.4L502.4 656.8ZM396 666.4C398.667 668.533 400.533 670.4 401.6 672C403.2 673.6 403.2 676 401.6 679.2C398.933 685.067 394.133 687.467 387.2 686.4C384 685.867 381.867 684.8 380.8 683.2C380.267 681.067 379.733 678.133 379.2 674.4C378.667 670.667 378.4 668 378.4 666.4C378.4 664.267 380 662.4 383.2 660.8C386.4 659.2 388.8 659.2 390.4 660.8C392 661.867 393.867 663.733 396 666.4ZM352 661.6L359.2 667.2L354.4 676.8L346.4 672L344.8 664.8L352 661.6ZM124 665.6L128.8 672L125.6 678.4L119.2 676L118.4 670.4L124 665.6ZM84.8 670.4C86.9333 672.533 88.5333 674.4 89.6 676C90.6667 677.067 90.4 678.667 88.8 680.8C87.2 684 85.6 686.4 84 688C82.9333 689.067 80.5333 689.333 76.8 688.8C70.4 687.733 66.6667 684.267 65.6 678.4C65.0667 674.667 65.6 672.533 67.2 672C69.3333 670.933 72 669.6 75.2 668C78.4 666.4 81.6 667.2 84.8 670.4ZM183.2 671.2L188 676.8L183.2 681.6L178.4 679.2L176.8 673.6L183.2 671.2ZM163.2 682.4C164.8 685.6 165.067 688.267 164 690.4C162.933 692.533 160.8 694.933 157.6 697.6C154.933 700.267 152.533 702.4 150.4 704C148.267 705.6 145.333 705.6 141.6 704C137.867 701.867 136 699.467 136 696.8C136 694.133 136.267 690.667 136.8 686.4C137.867 682.667 138.933 680 140 678.4C141.067 676.267 143.467 674.933 147.2 674.4C152 673.867 155.2 674.133 156.8 675.2C158.933 675.733 161.067 678.133 163.2 682.4ZM320.8 680.8C321.867 683.467 321.867 685.6 320.8 687.2C319.733 688.8 318.133 690.4 316 692C312.8 694.667 309.067 694.667 304.8 692C302.133 690.4 300 689.067 298.4 688C297.333 686.933 297.333 684.8 298.4 681.6C298.933 678.4 300 676.8 301.6 676.8C303.733 676.267 306.133 676 308.8 676C312 676 314.4 676 316 676C318.133 676 319.733 677.6 320.8 680.8ZM243.2 680L246.4 686.4L238.4 691.2L234.4 684L237.6 679.2L243.2 680ZM291.2 684.8C294.933 688.533 295.2 693.067 292 698.4C289.333 703.733 285.6 706.133 280.8 705.6C275.467 704.533 272.267 701.067 271.2 695.2C270.667 690.4 272.8 686.667 277.6 684C280.8 682.933 283.2 682.4 284.8 682.4C286.4 681.867 288.533 682.667 291.2 684.8ZM61.6 683.2L64 694.4L56 701.6L47.2 694.4L50.4 682.4L61.6 683.2ZM219.2 685.6L224 694.4L218.4 703.2L210.4 698.4L208.8 688.8L219.2 685.6ZM340 687.2L342.4 693.6L336.8 696L331.2 694.4L333.6 688L340 687.2ZM416 690.4L415.2 698.4L408.8 703.2L401.6 696.8L407.2 689.6L416 690.4ZM472.8 690.4L476.8 695.2L472.8 700L467.2 698.4L464.8 691.2L472.8 690.4ZM379.2 694.4L378.4 700L372 703.2L369.6 696L374.4 692L379.2 694.4ZM256.8 692.8L264.8 696.8L258.4 702.4L250.4 703.2L248 692.8H256.8ZM98.4 693.6L103.2 700.8L95.2 704L88.8 700L91.2 693.6H98.4ZM452 694.4L457.6 700V710.4L446.4 708.8L445.6 699.2L452 694.4ZM127.2 703.2L125.6 712.8L115.2 708L116.8 700L123.2 695.2L127.2 703.2ZM182.4 696.8L187.2 702.4L186.4 709.6L179.2 708.8L176.8 702.4L182.4 696.8ZM424.8 712L423.2 717.6L416.8 719.2L413.6 712L420 706.4L424.8 712ZM316.8 713.6L312.8 722.4L303.2 721.6V712.8L309.6 706.4L316.8 713.6ZM337.6 708C341.867 708 344 709.333 344 712C344.533 714.667 345.333 718.133 346.4 722.4C347.467 726.133 345.867 729.333 341.6 732C338.4 734.133 336 736 334.4 737.6C332.8 738.667 330.667 738.133 328 736C322.667 731.733 321.333 726.4 324 720C325.6 715.733 327.2 712.8 328.8 711.2C330.4 709.067 333.333 708 337.6 708ZM292 712.8C296.267 715.467 297.333 719.467 295.2 724.8C294.133 728 293.067 730.4 292 732C290.933 733.6 288.8 734.4 285.6 734.4C281.867 734.4 279.467 733.6 278.4 732C277.867 730.4 277.333 728 276.8 724.8C275.733 721.6 274.933 719.2 274.4 717.6C274.4 715.467 275.733 713.6 278.4 712C282.667 708.8 287.2 709.067 292 712.8ZM71.2 712L73.6 716.8L68.8 722.4L63.2 717.6L64 709.6L71.2 712ZM166.4 712L170.4 716.8L168.8 723.2L161.6 721.6V715.2L166.4 712ZM384.8 717.6L382.4 725.6L375.2 722.4L372 714.4L380 712L384.8 717.6ZM207.2 716L208.8 723.2L200.8 726.4L197.6 719.2L200.8 712L207.2 716ZM232.8 716L228 720.8L222.4 719.2V715.2L226.4 712.8L232.8 716ZM107.2 718.4L108 726.4H99.2L96 720L101.6 715.2L107.2 718.4ZM247.2 723.2C249.867 723.733 251.733 724.533 252.8 725.6C253.867 726.133 254.4 727.467 254.4 729.6C254.4 735.467 252.267 738.933 248 740C242.667 741.6 238.4 740.267 235.2 736C233.6 733.333 233.333 731.467 234.4 730.4C235.467 728.8 236.8 726.933 238.4 724.8C240.533 722.133 243.467 721.6 247.2 723.2ZM184.8 729.6V738.4L178.4 741.6L171.2 736.8L175.2 727.2L184.8 729.6ZM144 728.8L150.4 733.6L147.2 740L140.8 739.2L138.4 733.6L144 728.8ZM123.2 728.8L128 735.2L124.8 740.8L118.4 740L116 732.8L123.2 728.8ZM77.6 736L76.8 744L68 744.8L67.2 737.6L72 732.8L77.6 736Z" fill="url(#paint0_radial_266_72)"/>
<path d="M863.2 190.4L866.4 196L862.4 201.6L855.2 199.2L856 192L863.2 190.4ZM899.2 192L904.8 197.6L900 202.4L893.6 204.8L892.8 196.8L899.2 192ZM640.8 194.4L644.8 200L640.8 204.8L635.2 203.2L634.4 196.8L640.8 194.4ZM730.4 194.4L738.4 200L731.2 209.6L723.2 204L724 196.8L730.4 194.4ZM711.2 202.4C715.467 207.733 716.8 212.267 715.2 216C714.133 219.733 711.733 224.533 708 230.4C704.8 235.2 701.6 237.867 698.4 238.4C695.733 238.933 691.467 238.4 685.6 236.8C680.8 235.733 677.6 234.133 676 232C674.933 229.333 674.133 225.333 673.6 220C673.067 214.667 673.333 210.667 674.4 208C675.467 204.8 678.4 202.4 683.2 200.8C689.6 198.133 694.667 196.533 698.4 196C702.133 194.933 706.4 197.067 711.2 202.4ZM812 204C816.267 209.867 818.933 214.667 820 218.4C821.067 222.133 819.467 226.933 815.2 232.8C810.933 239.2 806.933 242.933 803.2 244C799.467 245.067 793.867 244.533 786.4 242.4C780 240.267 776.267 237.6 775.2 234.4C774.133 230.667 773.6 225.6 773.6 219.2C773.6 213.333 774.4 209.067 776 206.4C777.6 203.733 781.067 201.6 786.4 200C792.8 197.333 797.6 196.267 800.8 196.8C804 196.8 807.733 199.2 812 204ZM851.2 205.6C853.333 208.8 854.4 211.467 854.4 213.6C854.933 215.2 853.867 217.333 851.2 220C849.067 222.133 846.933 222.667 844.8 221.6C843.2 220.533 840.8 219.2 837.6 217.6C835.467 216 833.6 214.933 832 214.4C830.4 213.333 829.867 211.467 830.4 208.8C830.933 205.067 831.733 202.4 832.8 200.8C833.867 199.2 836 198.133 839.2 197.6C842.933 197.067 845.333 197.6 846.4 199.2C848 200.267 849.6 202.4 851.2 205.6ZM618.4 199.2L623.2 208L615.2 216L607.2 208.8L611.2 201.6L618.4 199.2ZM756 207.2H748.8L749.6 199.2L756 207.2ZM946.4 205.6C956 207.2 962.933 209.867 967.2 213.6C971.467 216.8 974.4 223.467 976 233.6C977.067 242.667 975.2 248.533 970.4 251.2C966.133 253.867 959.733 257.333 951.2 261.6C944.8 264.267 940 264.533 936.8 262.4C933.6 260.267 929.6 256.8 924.8 252C918.4 245.067 912.8 240 908 236.8C903.2 233.067 902.933 227.2 907.2 219.2C912 210.133 917.067 205.067 922.4 204C928.267 202.933 936.267 203.467 946.4 205.6ZM596 216L593.6 220.8L588.8 220L586.4 214.4L592 211.2L596 216ZM750.4 212.8L753.6 223.2L750.4 228.8H740.8L742.4 220L750.4 212.8ZM881.6 216.8C884.267 219.467 885.067 221.867 884 224C883.467 225.6 882.4 227.733 880.8 230.4C879.2 234.133 878.133 237.333 877.6 240C877.067 242.133 874.933 242.933 871.2 242.4C866.933 241.867 864.267 240.8 863.2 239.2C862.667 237.067 861.867 233.867 860.8 229.6C859.733 224.267 861.867 220.267 867.2 217.6C870.4 215.467 872.8 214.4 874.4 214.4C876.533 213.867 878.933 214.667 881.6 216.8ZM1005.6 224L1000.8 233.6L990.4 237.6L986.4 225.6L995.2 218.4L1005.6 224ZM614.4 223.2C617.6 223.733 619.467 226.4 620 231.2C620.533 233.333 620.8 235.2 620.8 236.8C620.8 238.4 619.467 239.733 616.8 240.8C612 243.467 608 243.2 604.8 240C602.667 237.867 602.133 236.267 603.2 235.2C604.8 233.6 606.133 231.467 607.2 228.8C608.267 226.667 609.067 225.067 609.6 224C610.667 222.933 612.267 222.667 614.4 223.2ZM643.2 230.4L640 236.8H633.6L631.2 230.4L636.8 224.8L643.2 230.4ZM1027.2 233.6V244L1016.8 241.6L1016 232.8L1021.6 228L1027.2 233.6ZM736 234.4V241.6L727.2 240.8L725.6 232.8L732 228.8L736 234.4ZM837.6 240L831.2 246.4L825.6 244.8L820.8 237.6L830.4 234.4L837.6 240ZM766.4 240.8L765.6 249.6L758.4 252.8L752.8 247.2L757.6 240L766.4 240.8ZM653.6 242.4L659.2 247.2L652.8 252L646.4 248.8L648.8 242.4H653.6ZM811.2 252L807.2 258.4L800.8 261.6L800 254.4L804 248L811.2 252ZM621.6 248.8C625.867 249.333 628.533 252.533 629.6 258.4C630.667 263.733 629.333 267.467 625.6 269.6C620.267 272.8 615.733 272.533 612 268.8C609.867 266.667 609.333 265.067 610.4 264C611.467 262.4 612.8 260.267 614.4 257.6C615.467 254.933 616.267 252.8 616.8 251.2C617.333 249.067 618.933 248.267 621.6 248.8ZM1036.8 259.2C1045.33 264 1048.53 269.333 1046.4 275.2C1044.27 281.067 1042.13 288.8 1040 298.4C1038.93 305.333 1037.07 310.4 1034.4 313.6C1032.27 316.267 1027.73 318.133 1020.8 319.2C1012.27 320.267 1005.6 320.533 1000.8 320C996.533 318.933 992.533 314.667 988.8 307.2C984 297.067 980.533 289.067 978.4 283.2C976.8 276.8 980 269.867 988 262.4C997.067 253.867 1004.8 249.867 1011.2 250.4C1017.6 250.4 1026.13 253.333 1036.8 259.2ZM845.6 250.4L852 253.6L848.8 260L843.2 258.4L841.6 253.6L845.6 250.4ZM672 256.8L670.4 264L662.4 262.4L660.8 254.4L668 252.8L672 256.8ZM731.2 265.6C738.667 269.333 744.8 272 749.6 273.6C754.933 275.2 756.8 280 755.2 288C753.6 297.6 750.667 303.733 746.4 306.4C742.133 308.533 735.467 310.4 726.4 312C718.933 313.067 713.867 311.733 711.2 308C708.533 304.267 705.6 298.933 702.4 292C698.667 285.067 696 279.467 694.4 275.2C693.333 270.933 695.733 266.133 701.6 260.8C706.933 255.467 711.467 254.133 715.2 256.8C719.467 258.933 724.8 261.867 731.2 265.6ZM595.2 260.8L593.6 267.2L587.2 269.6L583.2 263.2L588 258.4L595.2 260.8ZM889.6 270.4C895.467 275.2 898.4 279.467 898.4 283.2C898.933 286.933 897.867 292.267 895.2 299.2C893.067 305.067 890.133 308 886.4 308C882.667 307.467 877.867 306.933 872 306.4C865.6 305.867 860.533 305.6 856.8 305.6C853.6 305.067 851.2 301.867 849.6 296C847.467 288.533 846.4 282.667 846.4 278.4C846.933 274.133 850.4 269.867 856.8 265.6C864.267 260.8 869.867 259.2 873.6 260.8C877.867 261.867 883.2 265.067 889.6 270.4ZM784.8 264.8C788 269.067 787.733 273.867 784 279.2C781.867 282.4 780 284.533 778.4 285.6C776.8 286.667 774.133 286.667 770.4 285.6C767.2 284.533 765.333 283.2 764.8 281.6C764.267 279.467 764 276.533 764 272.8C764 267.467 766.133 264 770.4 262.4C773.6 261.333 776.267 260.8 778.4 260.8C780.533 260.8 782.667 262.133 784.8 264.8ZM649.6 261.6L654.4 265.6L651.2 271.2L643.2 272L645.6 264.8L649.6 261.6ZM681.6 276L679.2 284.8L671.2 287.2L669.6 279.2L672.8 272L681.6 276ZM822.4 282.4C822.933 287.2 823.467 290.933 824 293.6C824.533 295.733 822.667 297.867 818.4 300C814.667 302.133 812 302.133 810.4 300C808.8 297.333 806.667 294.667 804 292C800.8 288.8 798.133 286.667 796 285.6C793.867 284 793.6 281.333 795.2 277.6C797.333 273.867 799.467 272.267 801.6 272.8C804.267 273.333 807.733 273.867 812 274.4C815.2 274.933 817.6 275.733 819.2 276.8C820.8 277.333 821.867 279.2 822.4 282.4ZM600.8 276L606.4 279.2L601.6 283.2L594.4 285.6L593.6 276.8L600.8 276ZM654.4 284.8C659.733 288 662.133 291.467 661.6 295.2C661.6 298.933 660.8 304 659.2 310.4C658.133 316.8 657.067 322.133 656 326.4C654.933 330.133 651.2 332.533 644.8 333.6C636.267 334.133 630.133 333.6 626.4 332C622.667 329.867 619.2 325.067 616 317.6C612.8 311.2 612.533 306.4 615.2 303.2C617.867 300 622.133 296 628 291.2C632.8 286.4 636.8 283.467 640 282.4C643.733 280.8 648.533 281.6 654.4 284.8ZM932.8 288.8L935.2 295.2L928 299.2L924 292.8L926.4 285.6L932.8 288.8ZM954.4 295.2L959.2 300.8L952 304L945.6 301.6L948.8 295.2H954.4ZM596 297.6L597.6 306.4L589.6 308.8L584.8 301.6L588.8 295.2L596 297.6ZM686.4 298.4L689.6 307.2L682.4 310.4L674.4 308.8L676.8 300L686.4 298.4ZM928.8 304C933.6 307.2 935.2 311.733 933.6 317.6C932.533 322.933 928.8 325.867 922.4 326.4C919.2 326.4 917.333 325.6 916.8 324C916.267 322.4 915.467 320.267 914.4 317.6C913.333 314.933 912.533 312.8 912 311.2C911.467 309.6 912.267 307.733 914.4 305.6C917.067 303.467 919.2 302.133 920.8 301.6C922.933 301.067 925.6 301.867 928.8 304ZM835.2 308L832 312.8L827.2 310.4L825.6 304.8L832 303.2L835.2 308ZM791.2 312L787.2 319.2L780 316L780.8 308.8L787.2 304L791.2 312ZM1076.8 308.8L1078.4 313.6L1072.8 316L1066.4 312L1072 307.2L1076.8 308.8ZM760.8 310.4V317.6L755.2 321.6L748.8 317.6L752.8 311.2L760.8 310.4ZM603.2 314.4L604.8 320.8L599.2 324L591.2 321.6L594.4 312.8L603.2 314.4ZM701.6 321.6L704 328L702.4 334.4L696.8 330.4L693.6 324L701.6 321.6ZM772 323.2L776 332L770.4 336.8L762.4 335.2L764.8 327.2L772 323.2ZM947.2 324.8L952 331.2L947.2 336L941.6 335.2L942.4 329.6L947.2 324.8ZM878.4 326.4L882.4 332.8L878.4 337.6L873.6 335.2V330.4L878.4 326.4ZM1063.2 327.2L1070.4 334.4L1065.6 344L1058.4 339.2L1053.6 332L1063.2 327.2ZM971.2 327.2L974.4 334.4L972 340H963.2L962.4 329.6L971.2 327.2ZM751.2 332.8C753.333 338.133 752.267 342.667 748 346.4C743.733 350.133 739.2 350.667 734.4 348C731.2 346.4 729.6 344.8 729.6 343.2C730.133 341.067 730.667 338.667 731.2 336C732.267 331.2 734.933 328.533 739.2 328C742.4 327.467 744.8 327.467 746.4 328C748 328 749.6 329.6 751.2 332.8ZM616.8 333.6L621.6 337.6V346.4L612 344.8L610.4 336.8L616.8 333.6ZM922.4 336.8L919.2 347.2L912.8 354.4L904.8 346.4L909.6 334.4L922.4 336.8ZM604.8 348.8L596 356H584.8L586.4 344L596 339.2L604.8 348.8ZM718.4 342.4L715.2 350.4L708 349.6L704.8 342.4L711.2 340L718.4 342.4ZM675.2 344.8C681.6 345.867 686.4 346.933 689.6 348C693.333 349.067 695.733 352.533 696.8 358.4C697.333 364.8 696 368.8 692.8 370.4C689.6 372 685.333 374.133 680 376.8C675.733 378.933 672.267 380 669.6 380C667.467 379.467 664.533 377.6 660.8 374.4C655.467 369.067 650.667 365.067 646.4 362.4C642.133 359.733 641.6 354.933 644.8 348C648.533 341.067 652.533 338.667 656.8 340.8C661.6 342.4 667.733 343.733 675.2 344.8ZM998.4 340.8L1001.6 345.6L1000 350.4L994.4 348.8L992 343.2L998.4 340.8ZM1081.6 346.4L1079.2 354.4L1072.8 353.6L1068.8 348L1074.4 344L1081.6 346.4ZM896.8 352L895.2 360L886.4 358.4L884.8 348.8L892.8 346.4L896.8 352ZM769.6 357.6L766.4 367.2L755.2 363.2V352L766.4 348L769.6 357.6ZM952.8 356L950.4 362.4L941.6 365.6L938.4 355.2L947.2 350.4L952.8 356ZM621.6 359.2V369.6L612 370.4L605.6 364L612 355.2L621.6 359.2ZM1018.4 366.4L1014.4 375.2L1006.4 370.4L1005.6 362.4L1013.6 358.4L1018.4 366.4ZM1058.4 365.6C1062.67 370.933 1062.67 376.533 1058.4 382.4C1056.27 386.133 1054.13 388.533 1052 389.6C1050.4 390.667 1047.47 390.667 1043.2 389.6C1039.47 389.067 1037.33 387.733 1036.8 385.6C1036.8 382.933 1036.53 379.733 1036 376C1036 372.267 1036 369.333 1036 367.2C1036.53 365.067 1038.4 363.2 1041.6 361.6C1048 358.933 1053.6 360.267 1058.4 365.6ZM992 362.4L996 368L991.2 374.4L982.4 372.8L984.8 364L992 362.4ZM742.4 372C742.4 375.2 740.267 377.6 736 379.2C733.333 379.733 731.2 380.267 729.6 380.8C728.533 380.8 727.2 379.733 725.6 377.6C723.467 374.933 724 371.467 727.2 367.2C729.333 364 732.267 362.933 736 364C740.267 365.6 742.4 368.267 742.4 372ZM893.6 367.2L897.6 376L889.6 381.6L881.6 375.2L885.6 367.2H893.6ZM972.8 367.2V376.8L966.4 376V369.6L972.8 367.2ZM938.4 372.8L936.8 379.2L929.6 383.2L928.8 376L931.2 368L938.4 372.8ZM1080.8 368.8L1085.6 375.2L1080 380.8L1072.8 377.6L1074.4 370.4L1080.8 368.8ZM764 372L773.6 380L768 390.4L758.4 388.8L755.2 379.2L764 372ZM917.6 376.8L916 386.4H907.2L905.6 380L909.6 373.6L917.6 376.8ZM895.2 393.6C897.867 394.667 900 395.467 901.6 396C903.2 396 904 397.333 904 400C903.467 405.867 900.533 409.333 895.2 410.4C892 410.933 889.867 410.667 888.8 409.6C887.733 408 886.4 405.867 884.8 403.2C883.733 401.067 882.933 399.2 882.4 397.6C881.867 396 882.667 394.133 884.8 392C886.4 389.867 888 389.333 889.6 390.4C891.2 391.467 893.067 392.533 895.2 393.6ZM1008.8 390.4V400.8L999.2 402.4L996 395.2L1000 390.4H1008.8ZM642.4 408.8C644 414.133 644.8 418.4 644.8 421.6C644.8 424.8 642.4 428 637.6 431.2C632.267 434.933 628 436.8 624.8 436.8C621.6 436.267 617.6 433.867 612.8 429.6C608.533 426.4 606.4 423.467 606.4 420.8C606.933 417.6 608 413.333 609.6 408C611.733 402.667 613.6 398.667 615.2 396C616.8 393.333 620.533 392 626.4 392C632.267 392 636 393.333 637.6 396C639.2 398.667 640.8 402.933 642.4 408.8ZM724 392.8C726.667 392.8 728.267 393.6 728.8 395.2C729.333 396.8 730.133 399.2 731.2 402.4C731.733 405.067 732.267 407.467 732.8 409.6C733.333 411.2 732.267 412.8 729.6 414.4C724.8 417.067 720 416.533 715.2 412.8C713.067 411.2 712.267 409.6 712.8 408C713.867 406.4 714.933 404 716 400.8C717.067 398.133 717.867 396.267 718.4 395.2C719.467 393.6 721.333 392.8 724 392.8ZM1063.2 400.8L1060.8 407.2L1054.4 409.6L1051.2 403.2L1056.8 397.6L1063.2 400.8ZM996 414.4C1001.33 425.6 1001.6 433.867 996.8 439.2C992 444 985.067 450.4 976 458.4C969.6 464.8 964 468 959.2 468C954.4 468 948 465.867 940 461.6C930.4 456.267 922.667 452 916.8 448.8C911.467 445.6 909.867 438.667 912 428C914.133 416.8 917.867 409.867 923.2 407.2C929.067 404.533 937.6 402.4 948.8 400.8C961.067 399.2 970.667 398.4 977.6 398.4C984.533 397.867 990.667 403.2 996 414.4ZM765.6 405.6C769.867 406.667 773.067 407.733 775.2 408.8C777.333 409.867 778.667 412.533 779.2 416.8C779.733 421.067 778.933 423.733 776.8 424.8C774.667 425.867 771.733 427.2 768 428.8C764.267 430.4 761.333 431.467 759.2 432C757.067 432 754.933 430.667 752.8 428C749.6 424.267 747.2 421.333 745.6 419.2C744.533 417.067 745.333 413.867 748 409.6C750.133 405.867 752.533 404.267 755.2 404.8C757.867 404.8 761.333 405.067 765.6 405.6ZM700 413.6L696 423.2L685.6 427.2L683.2 416L690.4 409.6L700 413.6ZM807.2 413.6L808.8 420L802.4 421.6L796.8 417.6L800.8 411.2L807.2 413.6ZM1033.6 418.4C1036.27 420 1038.13 421.333 1039.2 422.4C1040.8 423.467 1041.07 425.6 1040 428.8C1039.47 431.467 1038.13 433.067 1036 433.6C1034.4 433.6 1032.27 433.6 1029.6 433.6C1025.87 433.6 1022.93 434.133 1020.8 435.2C1018.67 435.733 1016.8 434.133 1015.2 430.4C1014.13 427.2 1014.67 425.067 1016.8 424C1018.93 422.933 1021.33 421.333 1024 419.2C1027.2 416.533 1030.4 416.267 1033.6 418.4ZM1059.2 422.4L1056.8 427.2L1050.4 428V421.6L1055.2 416.8L1059.2 422.4ZM882.4 436C882.4 442.933 881.067 447.733 878.4 450.4C875.733 452.533 871.2 454.667 864.8 456.8C857.333 458.933 851.467 460.8 847.2 462.4C842.933 464 838.4 461.6 833.6 455.2C828.8 449.333 827.733 444.533 830.4 440.8C833.067 436.533 836.8 431.2 841.6 424.8C844.8 420 847.733 417.6 850.4 417.6C853.6 417.6 857.867 418.4 863.2 420C869.6 421.6 874.4 423.2 877.6 424.8C880.8 426.4 882.4 430.133 882.4 436ZM676 431.2C679.2 432.267 680.8 433.6 680.8 435.2C680.8 436.8 681.067 439.2 681.6 442.4C682.133 447.2 680.8 450.4 677.6 452C674.4 453.6 671.733 454.667 669.6 455.2C668 455.2 666.133 454.133 664 452C661.867 449.333 661.333 447.467 662.4 446.4C664 444.8 665.6 442.4 667.2 439.2C668.8 437.067 669.867 435.2 670.4 433.6C671.467 431.467 673.333 430.667 676 431.2ZM754.4 444.8C757.6 451.2 758.4 456.267 756.8 460C755.733 463.733 752.533 468 747.2 472.8C742.933 476.533 739.467 477.333 736.8 475.2C734.133 472.533 730.4 469.867 725.6 467.2C721.333 464.533 718.133 462.4 716 460.8C713.867 459.2 713.333 456 714.4 451.2C715.467 445.867 717.067 442.4 719.2 440.8C721.333 438.667 725.067 437.333 730.4 436.8C736.8 436.267 741.6 436 744.8 436C748.533 436 751.733 438.933 754.4 444.8ZM779.2 448L773.6 454.4L767.2 452L766.4 445.6L772.8 442.4L779.2 448ZM1024 448L1022.4 456L1014.4 459.2L1009.6 451.2L1016 444L1024 448ZM603.2 446.4L605.6 452.8L599.2 456L592.8 450.4L597.6 444.8L603.2 446.4ZM797.6 445.6C803.467 447.2 806.667 450.133 807.2 454.4C807.2 457.067 806.4 458.667 804.8 459.2C803.2 459.733 801.333 460.533 799.2 461.6C796 463.2 793.333 464.8 791.2 466.4C789.6 468 787.733 467.467 785.6 464.8C782.933 462.133 782.133 460 783.2 458.4C784.8 456.267 786.4 453.6 788 450.4C790.667 446.667 793.867 445.067 797.6 445.6ZM698.4 454.4L701.6 460.8H694.4L688.8 456.8L693.6 452.8L698.4 454.4ZM661.6 461.6L665.6 468L662.4 474.4L654.4 472.8L656 465.6L661.6 461.6ZM598.4 464C600.533 465.067 601.6 466.4 601.6 468C601.6 469.067 601.333 470.933 600.8 473.6C600.267 476.267 599.733 478.4 599.2 480C599.2 481.6 597.867 482.667 595.2 483.2C592 483.733 590.133 483.2 589.6 481.6C589.067 480 588.267 477.867 587.2 475.2C585.6 472 586.133 469.067 588.8 466.4C590.4 464.8 591.733 463.733 592.8 463.2C594.4 462.133 596.267 462.4 598.4 464ZM641.6 472.8C643.2 476 644.267 478.667 644.8 480.8C645.867 482.4 645.333 484.533 643.2 487.2C640 489.867 637.333 491.2 635.2 491.2C633.067 491.2 630.133 490.133 626.4 488C621.6 485.333 619.733 480.8 620.8 474.4C621.333 471.2 622.4 469.333 624 468.8C625.6 467.733 628 466.933 631.2 466.4C636 465.867 639.467 468 641.6 472.8ZM1047.2 470.4L1044.8 476.8L1038.4 479.2L1036 472.8L1040.8 467.2L1047.2 470.4ZM775.2 468.8L780 473.6L776.8 479.2L771.2 476.8L770.4 472L775.2 468.8ZM1017.6 469.6C1022.93 471.733 1025.33 474.667 1024.8 478.4C1024.27 481.6 1024 486.133 1024 492C1024 498.4 1020.8 502.667 1014.4 504.8C1010.13 506.4 1006.67 507.467 1004 508C1001.33 508 998.667 506.133 996 502.4C993.333 498.133 992 494.933 992 492.8C992.533 490.133 994.4 486.667 997.6 482.4C1000.8 477.6 1003.47 473.867 1005.6 471.2C1007.73 468.533 1011.73 468 1017.6 469.6ZM904 469.6L913.6 476.8L908 486.4L896.8 484.8L894.4 474.4L904 469.6ZM819.2 472L823.2 477.6L816.8 482.4L809.6 479.2L812.8 471.2L819.2 472ZM694.4 480C697.6 484.267 697.867 488.533 695.2 492.8C693.067 496.533 689.333 497.867 684 496.8C678.667 495.2 675.733 492.267 675.2 488C674.667 484.267 674.4 481.333 674.4 479.2C674.933 477.067 677.067 475.2 680.8 473.6C684 472.533 686.4 472.8 688 474.4C689.6 475.467 691.733 477.333 694.4 480ZM873.6 481.6C875.2 484.267 876.533 486.4 877.6 488C879.2 489.067 878.933 490.667 876.8 492.8C874.667 494.933 872.8 495.467 871.2 494.4C869.6 493.333 867.467 492.267 864.8 491.2C862.133 490.133 859.733 489.333 857.6 488.8C856 488.267 855.467 486.4 856 483.2C856.533 478.4 859.733 475.2 865.6 473.6C868.267 473.067 869.867 473.867 870.4 476C870.933 477.6 872 479.467 873.6 481.6ZM756.8 483.2V490.4L749.6 492L744.8 484L752 480L756.8 483.2ZM804 488.8L803.2 496.8L796.8 499.2L794.4 493.6L795.2 487.2L804 488.8ZM717.6 487.2L722.4 495.2L716 500.8L708.8 497.6L710.4 490.4L717.6 487.2ZM854.4 492L850.4 500.8L842.4 501.6L838.4 495.2L844.8 488.8L854.4 492ZM980 496L977.6 504.8H969.6L964.8 499.2L970.4 491.2L980 496ZM900 499.2C901.067 502.4 899.733 505.333 896 508C893.333 510.133 890.667 510.133 888 508C885.867 506.933 884 505.867 882.4 504.8C881.333 503.733 881.333 501.867 882.4 499.2C883.467 494.933 886.667 492.8 892 492.8C895.733 492.8 898.4 494.933 900 499.2ZM605.6 492.8L610.4 500L602.4 504L593.6 499.2L600 492.8H605.6ZM667.2 496.8L664.8 503.2L659.2 499.2L657.6 493.6L667.2 496.8ZM1064 500.8L1058.4 508.8L1050.4 504.8L1048.8 496L1057.6 493.6L1064 500.8ZM956 496V504L951.2 505.6L946.4 502.4L947.2 495.2L956 496ZM936.8 500.8L935.2 506.4L927.2 507.2V499.2L932 497.6L936.8 500.8ZM824.8 499.2C832.267 501.333 836 505.867 836 512.8C836 517.067 835.2 520.267 833.6 522.4C832.533 524 829.867 525.6 825.6 527.2C819.733 529.333 814.667 527.467 810.4 521.6C807.733 518.4 805.867 515.733 804.8 513.6C804.267 511.467 805.067 508.533 807.2 504.8C809.867 501.067 812.267 498.933 814.4 498.4C817.067 497.333 820.533 497.6 824.8 499.2ZM784 501.6C786.133 503.2 786.667 504.8 785.6 506.4C785.067 508 784.533 510.4 784 513.6C783.467 515.733 782.933 517.6 782.4 519.2C782.4 520.8 781.067 521.6 778.4 521.6C775.733 521.6 774.133 521.067 773.6 520C773.067 518.4 772.533 516.533 772 514.4C770.4 511.2 770.667 508.533 772.8 506.4C774.933 504.8 776.533 503.2 777.6 501.6C779.2 500 781.333 500 784 501.6ZM746.4 508C747.467 511.2 748 513.867 748 516C748 517.6 746.667 519.467 744 521.6C741.333 524.267 738.933 525.333 736.8 524.8C735.2 524.267 733.067 523.2 730.4 521.6C727.733 520 726.667 518.4 727.2 516.8C727.733 515.2 728.267 513.067 728.8 510.4C729.867 507.733 730.4 505.6 730.4 504C730.933 501.867 732.533 500.8 735.2 500.8C740.533 500.267 744.267 502.667 746.4 508ZM867.2 506.4L869.6 513.6L864.8 518.4L856 515.2L859.2 506.4H867.2ZM710.4 508L715.2 514.4L711.2 519.2H704.8L705.6 513.6L710.4 508ZM612 513.6L608.8 521.6L600 520.8L600.8 513.6L604.8 510.4L612 513.6ZM670.4 516.8L664 525.6L655.2 527.2L651.2 518.4L660 512.8L670.4 516.8ZM1043.2 514.4L1048.8 516.8L1046.4 523.2L1038.4 524.8L1037.6 516.8L1043.2 514.4ZM1080 516.8C1082.67 517.333 1084.53 518.133 1085.6 519.2C1087.2 520.267 1088 522.133 1088 524.8C1088 529.6 1085.33 532.8 1080 534.4C1074.67 536.533 1070.67 535.467 1068 531.2C1064.8 526.933 1064.8 522.667 1068 518.4C1069.6 515.733 1071.2 514.667 1072.8 515.2C1074.4 515.2 1076.8 515.733 1080 516.8ZM930.4 521.6C933.6 524.8 936.267 527.2 938.4 528.8C941.067 529.867 941.6 532.533 940 536.8C937.867 540.533 935.467 542.133 932.8 541.6C930.133 540.533 926.667 539.733 922.4 539.2C917.6 538.667 914.667 535.733 913.6 530.4C913.067 526.667 912.533 523.733 912 521.6C912 519.467 913.867 517.6 917.6 516C920.8 514.4 922.933 514.4 924 516C925.6 517.6 927.733 519.467 930.4 521.6ZM881.6 517.6L887.2 521.6L882.4 525.6L876 527.2L875.2 519.2L881.6 517.6ZM964 522.4L960 532L952.8 531.2L946.4 524.8L954.4 519.2L964 522.4ZM692.8 527.2L688 536.8L680.8 531.2L678.4 524L686.4 520.8L692.8 527.2ZM633.6 522.4C636.8 522.4 638.667 523.467 639.2 525.6C639.733 527.2 640.533 529.6 641.6 532.8C642.133 536 642.4 538.4 642.4 540C642.4 541.6 641.333 543.2 639.2 544.8C636.533 546.4 634.4 546.667 632.8 545.6C631.733 544.533 630.133 543.2 628 541.6C623.733 538.4 622.4 535.2 624 532C625.067 528.8 626.133 526.4 627.2 524.8C628.267 523.2 630.4 522.4 633.6 522.4ZM984 528L979.2 534.4L972.8 533.6L970.4 526.4L977.6 524L984 528ZM772.8 535.2C772.8 538.933 770.933 541.333 767.2 542.4C764.533 543.467 762.4 544.267 760.8 544.8C759.2 545.333 757.6 544.267 756 541.6C753.867 539.467 753.067 537.6 753.6 536C754.667 534.4 756 532.533 757.6 530.4C759.2 527.733 762.4 526.933 767.2 528C770.933 529.6 772.8 532 772.8 535.2ZM607.2 531.2L604 538.4H597.6L592.8 532.8L599.2 527.2L607.2 531.2ZM898.4 529.6L902.4 537.6L895.2 544.8L889.6 538.4L888.8 529.6H898.4ZM1063.2 533.6L1062.4 540L1054.4 538.4L1055.2 531.2L1063.2 533.6ZM720.8 531.2L723.2 538.4L720.8 545.6L712.8 542.4L712 533.6L720.8 531.2ZM1026.4 534.4C1031.73 535.467 1035.2 536.8 1036.8 538.4C1038.93 540 1040.27 543.2 1040.8 548C1041.33 552.267 1040.27 554.933 1037.6 556C1034.93 557.067 1031.47 558.4 1027.2 560C1022.4 562.133 1018.13 561.067 1014.4 556.8C1012.27 554.133 1010.67 552 1009.6 550.4C1009.07 548.267 1009.6 545.6 1011.2 542.4C1013.87 538.667 1016 536.267 1017.6 535.2C1019.73 533.6 1022.67 533.333 1026.4 534.4ZM960 543.2L961.6 549.6L955.2 550.4L950.4 546.4L954.4 541.6L960 543.2ZM658.4 544L663.2 551.2L659.2 556.8L652 556L650.4 548L658.4 544ZM750.4 548.8C753.067 550.4 753.867 552.8 752.8 556C751.733 558.667 750.933 560.8 750.4 562.4C750.4 564 749.067 564.8 746.4 564.8C743.733 564.8 742.133 564.267 741.6 563.2C741.067 561.6 740.267 559.467 739.2 556.8C738.667 554.133 738.133 552.267 737.6 551.2C737.067 549.6 737.867 548 740 546.4C742.133 544.8 743.733 544.533 744.8 545.6C746.4 546.133 748.267 547.2 750.4 548.8ZM983.2 547.2L981.6 552.8L976 551.2L972.8 544.8L983.2 547.2ZM912.8 552.8L919.2 560L914.4 568L907.2 564.8L905.6 557.6L912.8 552.8ZM706.4 554.4L711.2 561.6L705.6 565.6H699.2L698.4 557.6L706.4 554.4ZM1085.6 557.6C1088.27 559.733 1088.53 562.933 1086.4 567.2C1085.33 569.333 1084.27 570.933 1083.2 572C1082.67 573.067 1081.33 573.6 1079.2 573.6C1073.33 573.067 1069.87 570.667 1068.8 566.4C1068.27 563.733 1068.8 562.133 1070.4 561.6C1072.53 561.067 1074.67 560 1076.8 558.4C1078.93 557.333 1080.53 556.533 1081.6 556C1082.67 555.467 1084 556 1085.6 557.6ZM1062.4 561.6L1061.6 568H1054.4L1051.2 561.6L1057.6 556L1062.4 561.6ZM640.8 568C640.8 572.267 640.533 575.467 640 577.6C639.467 579.2 637.333 580.8 633.6 582.4C630.4 583.467 628 583.2 626.4 581.6C625.333 579.467 623.733 577.067 621.6 574.4C619.467 571.2 619.733 567.733 622.4 564C624 561.867 625.333 560.267 626.4 559.2C627.467 557.6 629.333 557.333 632 558.4C637.867 560 640.8 563.2 640.8 568ZM594.4 560L599.2 565.6L593.6 569.6L585.6 568.8L586.4 559.2L594.4 560ZM981.6 563.2V568L973.6 567.2L976 560.8L981.6 563.2ZM958.4 572.8C961.067 576 961.6 578.667 960 580.8C958.933 582.933 957.067 585.867 954.4 589.6C952.267 592.8 950.133 595.2 948 596.8C946.4 598.4 943.733 598.667 940 597.6C935.2 596 931.733 594.4 929.6 592.8C927.467 591.2 926.4 587.733 926.4 582.4C926.4 577.067 927.2 573.6 928.8 572C930.933 569.867 934.667 568 940 566.4C947.467 563.733 953.6 565.867 958.4 572.8ZM689.6 568.8C696.533 572 699.2 576 697.6 580.8C696.533 585.067 695.733 590.667 695.2 597.6C694.667 604.533 694.133 610.133 693.6 614.4C693.067 618.133 689.6 620.533 683.2 621.6C676.267 623.2 671.2 622.933 668 620.8C665.333 618.133 662.133 613.6 658.4 607.2C654.667 600.8 652 595.733 650.4 592C649.333 587.733 651.2 582.667 656 576.8C661.867 570.4 666.933 566.667 671.2 565.6C675.467 564.533 681.6 565.6 689.6 568.8ZM1000.8 566.4L1004.8 573.6L997.6 579.2L993.6 573.6L992.8 566.4H1000.8ZM721.6 569.6L724.8 577.6L717.6 584L712 576.8L715.2 571.2L721.6 569.6ZM763.2 584C764.8 588.8 765.333 592.8 764.8 596C764.8 598.667 762.4 601.6 757.6 604.8C753.867 608 750.667 609.067 748 608C745.333 606.933 741.867 605.067 737.6 602.4C733.867 599.733 731.467 597.333 730.4 595.2C729.333 592.533 729.6 589.067 731.2 584.8C732.8 580 734.4 576.267 736 573.6C737.6 570.933 741.067 569.6 746.4 569.6C751.733 569.6 755.2 570.667 756.8 572.8C758.933 574.933 761.067 578.667 763.2 584ZM904 574.4L907.2 579.2L901.6 584L895.2 580L897.6 572L904 574.4ZM1052 576C1056.27 577.067 1058.67 578.933 1059.2 581.6C1059.73 584.267 1060 587.733 1060 592C1060 596.267 1059.73 599.733 1059.2 602.4C1059.2 604.533 1057.07 606.4 1052.8 608C1049.07 609.6 1046.13 609.867 1044 608.8C1041.87 607.2 1039.47 604.8 1036.8 601.6C1032 595.733 1031.47 590.133 1035.2 584.8C1037.87 581.067 1040 578.4 1041.6 576.8C1043.73 574.667 1047.2 574.4 1052 576ZM980 577.6C986.4 577.6 990.4 580.533 992 586.4C993.067 590.133 993.067 592.8 992 594.4C990.933 596 988.8 597.867 985.6 600C981.333 603.2 976.8 602.933 972 599.2C968.8 596.533 968.267 592.533 970.4 587.2C971.467 584 972.267 581.6 972.8 580C973.867 578.4 976.267 577.6 980 577.6ZM600.8 584.8L598.4 592L592 588.8L587.2 581.6L596 578.4L600.8 584.8ZM1092.8 582.4L1098.4 588L1092.8 593.6L1088 589.6L1087.2 584L1092.8 582.4ZM1016.8 584.8L1023.2 588L1020 596L1012 593.6V588L1016.8 584.8ZM901.6 594.4L907.2 599.2L902.4 604.8L896 604V597.6L901.6 594.4ZM1005.6 600L1004.8 606.4L999.2 608.8L995.2 604L999.2 600H1005.6ZM628.8 609.6C629.867 612.267 630.667 614.4 631.2 616C632.267 617.067 632 618.667 630.4 620.8C627.2 624 623.2 624.533 618.4 622.4C614.133 620.267 612.267 617.067 612.8 612.8C613.333 609.067 613.867 606.4 614.4 604.8C614.933 603.2 616.8 601.867 620 600.8C622.667 600.267 624.267 601.067 624.8 603.2C625.867 604.8 627.2 606.933 628.8 609.6ZM1028 608L1032 614.4L1024 616.8L1020 612L1022.4 606.4L1028 608ZM724 618.4L723.2 627.2L713.6 628.8L710.4 620L716 612.8L724 618.4ZM972 614.4L974.4 618.4L969.6 621.6L965.6 619.2V613.6L972 614.4ZM1083.2 615.2C1088 618.933 1089.33 623.733 1087.2 629.6C1086.13 632.8 1084.53 634.933 1082.4 636C1080.8 636.533 1078.4 636.8 1075.2 636.8C1070.4 636.8 1067.2 634.133 1065.6 628.8C1064.53 626.133 1064.53 624.267 1065.6 623.2C1067.2 622.133 1069.07 621.067 1071.2 620C1073.87 617.867 1075.73 616.267 1076.8 615.2C1078.4 613.6 1080.53 613.6 1083.2 615.2ZM879.2 614.4L883.2 623.2L877.6 630.4L868.8 627.2L869.6 616.8L879.2 614.4ZM836 618.4L833.6 623.2L828.8 622.4L826.4 616L832.8 614.4L836 618.4ZM812 625.6C812.533 629.333 812.8 632.267 812.8 634.4C812.8 636.533 811.2 638.667 808 640.8C803.733 642.933 800.267 644 797.6 644C795.467 643.467 792.8 641.6 789.6 638.4C786.4 635.733 784.8 633.333 784.8 631.2C785.333 628.533 786.667 625.333 788.8 621.6C790.4 617.867 792 615.733 793.6 615.2C795.733 614.667 798.667 614.667 802.4 615.2C807.733 616.267 810.933 619.733 812 625.6ZM758.4 619.2C763.2 619.733 766.667 620.533 768.8 621.6C771.467 622.667 773.333 625.6 774.4 630.4C776 635.733 776.267 639.733 775.2 642.4C774.667 645.067 772.267 647.733 768 650.4C763.2 653.6 759.2 655.467 756 656C753.333 656 749.6 654.133 744.8 650.4C740.533 647.2 738.133 644.267 737.6 641.6C737.6 638.4 738.667 634.133 740.8 628.8C742.4 624 744.533 621.333 747.2 620.8C749.867 619.733 753.6 619.2 758.4 619.2ZM999.2 627.2L996.8 634.4H987.2L988.8 625.6L994.4 622.4L999.2 627.2ZM603.2 633.6L602.4 644H590.4L587.2 632.8L596 624.8L603.2 633.6ZM961.6 640C962.667 648.533 961.6 654.667 958.4 658.4C955.733 662.133 950.4 665.867 942.4 669.6C935.467 673.333 930.133 674.4 926.4 672.8C922.667 670.667 918.133 666.933 912.8 661.6C908 657.333 905.867 653.6 906.4 650.4C906.933 646.667 908.8 641.867 912 636C914.667 630.667 917.333 627.467 920 626.4C922.667 625.333 926.933 625.067 932.8 625.6C940.267 627.2 946.4 628 951.2 628C956.533 628 960 632 961.6 640ZM1029.6 629.6L1025.6 638.4L1020 636L1023.2 630.4L1029.6 629.6ZM640.8 632L643.2 637.6L637.6 642.4L631.2 637.6L634.4 632H640.8ZM855.2 635.2C860 636.8 863.2 638.667 864.8 640.8C866.933 642.933 868 646.667 868 652C868 657.333 866.933 660.8 864.8 662.4C862.667 664 859.2 665.6 854.4 667.2C849.6 668.8 845.6 669.6 842.4 669.6C839.733 669.6 837.067 667.467 834.4 663.2C830.667 658.933 828.8 655.2 828.8 652C828.8 648.8 830.667 645.067 834.4 640.8C837.6 636.533 840.533 634.133 843.2 633.6C845.867 633.067 849.867 633.6 855.2 635.2ZM987.2 640.8L980.8 646.4L972 647.2V637.6L980 634.4L987.2 640.8ZM659.2 636L657.6 643.2L648.8 641.6L651.2 634.4L659.2 636ZM1051.2 635.2L1056.8 642.4L1052.8 650.4H1040.8V637.6L1051.2 635.2ZM690.4 642.4C693.067 645.6 693.067 649.067 690.4 652.8C688.8 655.467 687.467 657.333 686.4 658.4C685.333 659.467 683.2 659.467 680 658.4C675.2 657.333 672.8 653.867 672.8 648C672.8 645.333 673.333 643.733 674.4 643.2C676 642.133 678.133 641.333 680.8 640.8C685.067 638.667 688.267 639.2 690.4 642.4ZM629.6 652C631.2 654.667 631.2 656.8 629.6 658.4C628.533 660 626.667 662.133 624 664.8C621.867 666.933 620 668.533 618.4 669.6C616.8 670.667 614.4 670.4 611.2 668.8C605.867 666.133 603.733 661.6 604.8 655.2C605.867 648.8 609.6 645.067 616 644C622.4 642.933 626.933 645.6 629.6 652ZM819.2 644L824 649.6L822.4 657.6L815.2 655.2L812.8 648.8L819.2 644ZM1013.6 646.4L1018.4 649.6L1017.6 656.8L1009.6 656L1008 649.6L1013.6 646.4ZM724.8 646.4L732.8 652L729.6 664L720 659.2L717.6 652L724.8 646.4ZM1079.2 648V656.8L1070.4 658.4L1064.8 651.2L1071.2 646.4L1079.2 648ZM997.6 647.2L1000.8 652.8L996.8 659.2L988.8 655.2L992 649.6L997.6 647.2ZM1036.8 656.8L1043.2 662.4L1037.6 670.4L1030.4 665.6L1031.2 659.2L1036.8 656.8ZM650.4 660.8L651.2 667.2L646.4 671.2L640 667.2L643.2 660L650.4 660.8ZM747.2 664.8V672.8L739.2 676.8L736 668.8L740 662.4L747.2 664.8ZM591.2 664.8L593.6 669.6L588.8 673.6L582.4 669.6L584.8 663.2L591.2 664.8ZM1020.8 666.4V672.8L1014.4 676L1008.8 669.6L1014.4 663.2L1020.8 666.4ZM805.6 669.6C812.533 674.4 817.867 678.4 821.6 681.6C825.333 684.8 825.867 690.4 823.2 698.4C821.067 706.4 817.333 710.4 812 710.4C807.2 710.4 800.533 710.4 792 710.4C784 710.4 777.333 710.667 772 711.2C766.667 711.733 762.667 708 760 700C757.333 692 758.133 686.667 762.4 684C767.2 681.333 772.8 677.333 779.2 672C784.533 668.267 788.8 666.133 792 665.6C795.733 664.533 800.267 665.867 805.6 669.6ZM672.8 670.4L673.6 676L667.2 676.8L664.8 671.2L668.8 667.2L672.8 670.4ZM713.6 678.4C715.733 682.133 717.067 685.067 717.6 687.2C718.133 689.333 717.067 691.733 714.4 694.4C710.667 698.133 707.467 701.067 704.8 703.2C702.667 705.333 699.2 705.067 694.4 702.4C689.067 700.267 686.133 697.6 685.6 694.4C685.067 691.2 685.067 686.933 685.6 681.6C686.133 677.333 687.733 675.2 690.4 675.2C693.067 674.667 696.8 673.867 701.6 672.8C707.467 671.733 711.467 673.6 713.6 678.4ZM608.8 680L611.2 685.6L605.6 692L598.4 686.4L600.8 676.8L608.8 680ZM1041.6 680C1045.33 681.067 1048.27 681.6 1050.4 681.6C1053.07 681.6 1054.4 683.2 1054.4 686.4C1054.4 690.133 1053.33 692.267 1051.2 692.8C1049.07 692.8 1046.13 693.333 1042.4 694.4C1039.73 695.467 1037.6 696.533 1036 697.6C1034.4 698.133 1032.53 697.067 1030.4 694.4C1028.27 691.733 1026.93 689.333 1026.4 687.2C1025.87 685.067 1026.67 682.4 1028.8 679.2C1030.4 676.533 1032 676 1033.6 677.6C1035.73 678.667 1038.4 679.467 1041.6 680ZM890.4 684.8L893.6 693.6H884L876 688L882.4 678.4L890.4 684.8ZM1007.2 684.8C1009.33 688.533 1010.93 691.467 1012 693.6C1013.07 695.733 1012.27 698.133 1009.6 700.8C1006.4 704 1003.73 705.6 1001.6 705.6C999.467 705.067 996.267 704 992 702.4C988.267 700.267 985.6 698.667 984 697.6C982.4 696 981.867 693.067 982.4 688.8C982.933 684.533 984 682.133 985.6 681.6C987.733 680.533 990.933 679.467 995.2 678.4C1000.53 677.333 1004.53 679.467 1007.2 684.8ZM864 690.4C865.067 694.133 864 697.067 860.8 699.2C857.067 701.867 853.6 702.133 850.4 700C846.133 696.8 844.8 693.333 846.4 689.6C847.467 686.4 848.533 684 849.6 682.4C850.667 680.8 852.8 680 856 680C859.2 680 861.067 681.067 861.6 683.2C862.133 684.8 862.933 687.2 864 690.4ZM964.8 700.8C965.333 704 965.6 706.667 965.6 708.8C965.6 710.4 964.267 712 961.6 713.6C956.267 716.267 951.467 715.467 947.2 711.2C944 708.533 941.867 706.4 940.8 704.8C940.267 702.667 940.8 699.733 942.4 696C944.533 691.733 946.4 688.8 948 687.2C949.6 685.6 952.8 685.067 957.6 685.6C961.867 686.133 963.733 687.733 963.2 690.4C963.2 693.067 963.733 696.533 964.8 700.8ZM740 690.4L736.8 696.8L731.2 698.4L727.2 692.8L732.8 688L740 690.4ZM668 703.2C668.533 709.6 666.933 713.6 663.2 715.2C660 716.267 655.467 718.133 649.6 720.8C644.8 723.467 640.8 725.333 637.6 726.4C634.4 726.933 630.933 725.067 627.2 720.8C623.467 716.533 621.867 713.067 622.4 710.4C622.933 707.2 624.8 702.933 628 697.6C630.133 693.333 632.533 690.667 635.2 689.6C637.867 688.533 641.6 688.267 646.4 688.8C652.8 690.4 657.6 691.733 660.8 692.8C664.533 693.333 666.933 696.8 668 703.2ZM595.2 696L597.6 702.4L591.2 708.8L584 703.2L587.2 695.2L595.2 696ZM841.6 700L839.2 707.2L832.8 706.4L828 701.6L834.4 696L841.6 700ZM897.6 700.8L904 708L903.2 717.6H892L888.8 706.4L897.6 700.8ZM984.8 708.8V716.8L979.2 719.2L974.4 715.2L976.8 708.8H984.8ZM690.4 714.4L688 723.2L680.8 721.6L676 716L683.2 710.4L690.4 714.4ZM921.6 711.2L929.6 719.2L924 729.6L913.6 726.4L912 715.2L921.6 711.2ZM724 712.8L728 717.6L722.4 720.8L714.4 720L716.8 712L724 712.8ZM753.6 719.2C756.8 719.2 758.933 721.067 760 724.8C760.533 727.467 761.067 729.6 761.6 731.2C762.667 732.8 762.133 734.4 760 736C755.2 739.2 750.667 739.2 746.4 736C743.733 733.867 742.4 732 742.4 730.4C742.933 728.8 743.733 726.4 744.8 723.2C745.333 720.533 746.4 719.2 748 719.2C749.6 719.2 751.467 719.2 753.6 719.2ZM833.6 722.4L835.2 729.6L828.8 737.6L823.2 728.8L824 719.2L833.6 722.4ZM896 725.6C899.2 730.4 898.933 734.933 895.2 739.2C893.067 741.867 891.2 742.933 889.6 742.4C888 741.333 885.6 740.267 882.4 739.2C878.133 737.6 876 734.933 876 731.2C876 728 876.267 725.6 876.8 724C877.333 722.4 879.2 721.333 882.4 720.8C888.267 719.2 892.8 720.8 896 725.6ZM859.2 722.4L864.8 728L862.4 736.8L852.8 736V727.2L859.2 722.4ZM617.6 726.4V731.2L612.8 732.8L608 728L613.6 723.2L617.6 726.4ZM712 724.8L715.2 732.8L707.2 737.6L703.2 730.4L704.8 723.2L712 724.8ZM678.4 732L680 737.6L675.2 740.8L667.2 738.4L671.2 731.2L678.4 732ZM814.4 736.8L816.8 744L806.4 739.2L809.6 734.4L814.4 736.8ZM797.6 737.6L796 744L789.6 742.4V736L797.6 737.6Z" fill="url(#paint1_radial_266_72)"/>
<defs>
<radialGradient id="paint0_radial_266_72" cx="0" cy="0" r="1" gradientUnits="userSpaceOnUse" gradientTransform="translate(268 374) rotate(90) scale(374 268)">
<stop offset="0.465" stop-color="#4285F4"/>
<stop offset="1" stop-color="#FB923C"/>
</radialGradient>
<radialGradient id="paint1_radial_266_72" cx="0" cy="0" r="1" gradientUnits="userSpaceOnUse" gradientTransform="translate(806.5 373.5) rotate(90) scale(373.5 270.5)">
<stop offset="0.465" stop-color="#4285F4"/>
<stop offset="1" stop-color="#FB923C"/>
</radialGradient>
</defs>
</svg>
