<svg width="1197" height="776" viewBox="0 0 1197 776" fill="none" xmlns="http://www.w3.org/2000/svg">
<path d="M388.8 751.2L378.4 756C376.267 756.533 374.667 756 373.6 754.4C370.4 755.467 368.267 756.267 367.2 756.8C367.2 756.8 366.933 756.8 366.4 756.8C365.867 756.8 365.6 756.8 365.6 756.8L358.4 759.2C357.867 759.2 356.8 759.733 355.2 760.8L344 765.6C341.867 766.667 340.267 766.133 339.2 764C339.2 764 338.933 763.733 338.4 763.2L332 765.6C330.4 766.133 329.067 765.867 328 764.8L316 768.8C313.867 769.867 312.267 769.333 311.2 767.2C311.2 766.133 311.2 765.333 311.2 764.8L300 768.8C297.867 769.867 296.267 769.067 295.2 766.4C294.667 765.333 294.933 764.267 296 763.2L284 769.6C281.867 770.667 280.267 770.133 279.2 768C279.2 767.467 278.4 767.467 276.8 768L264 773.6C261.867 774.667 260.267 774.133 259.2 772C258.133 769.867 258.667 768.267 260.8 767.2L267.2 764.8L262.4 766.4L251.2 772C249.067 773.067 247.467 772.533 246.4 770.4C245.333 768.267 245.867 766.667 248 765.6L254.4 762.4L247.2 765.6L234.4 770.4C232.267 771.467 230.667 770.933 229.6 768.8C229.067 766.667 229.6 765.067 231.2 764L220 767.2C217.867 768.267 216.533 767.467 216 764.8C215.467 764.267 215.467 763.733 216 763.2C215.467 763.2 215.2 763.2 215.2 763.2L203.2 768.8C201.067 769.867 199.467 769.333 198.4 767.2C197.867 766.133 197.867 765.333 198.4 764.8L188 769.6C185.867 770.667 184.267 770.133 183.2 768C182.667 766.933 182.667 765.867 183.2 764.8C182.667 764.8 181.867 764.8 180.8 764.8L172 768.8C169.867 769.867 168.267 769.333 167.2 767.2C167.2 766.667 167.2 766.4 167.2 766.4L156.8 770.4C154.667 771.467 153.333 770.933 152.8 768.8C152.267 767.733 152.267 766.667 152.8 765.6C151.2 765.6 150.133 765.6 149.6 765.6L141.6 768.8C139.467 769.867 137.867 769.6 136.8 768L123.2 772.8C121.067 773.867 119.467 773.333 118.4 771.2C117.867 769.6 118.133 768.533 119.2 768L108.8 771.2C106.133 772.267 104.533 771.733 104 769.6C103.467 768 103.733 766.667 104.8 765.6C103.733 765.6 102.667 765.6 101.6 765.6L96 767.2C95.4667 767.733 93.6 767.733 90.4 767.2L78.4 772.8C76.2667 773.867 74.6667 773.333 73.6 771.2C72.5333 769.067 73.3333 767.467 76 766.4C76 766.4 75.7333 766.4 75.2 766.4L63.2 769.6C61.0667 770.667 59.4667 769.867 58.4 767.2C58.4 767.2 58.4 766.933 58.4 766.4L48 770.4C45.3333 771.467 43.7333 770.933 43.2 768.8C42.6667 767.2 41.8667 766.667 40.8 767.2L28 772C25.8667 773.067 24.2667 772.533 23.2 770.4C22.1333 768.267 23.4667 766.4 27.2 764.8C27.2 763.2 28 762.133 29.6 761.6L41.6 756L55.2 751.2L62.4 745.6L52.8 748.8L40.8 753.6L27.2 760L16 763.2C13.3333 764.267 11.7333 763.733 11.2 761.6C10.6667 758.933 11.4667 757.333 13.6 756.8L24.8 752.8L37.6 747.2C38.1333 747.2 38.4 747.2 38.4 747.2L50.4 742.4L60 734.4C59.4667 733.867 58.6667 732.267 57.6 729.6L48.8 732L35.2 738.4L22.4 744.8L9.6 748.8C7.46667 749.867 5.86667 749.333 4.8 747.2C4.26667 744.533 5.06667 742.933 7.2 742.4L19.2 737.6L32 732L45.6 725.6C46.1333 725.6 46.4 725.6 46.4 725.6L54.4 723.2C53.8667 721.6 53.6 720 53.6 718.4C53.0667 717.333 51.7333 717.067 49.6 717.6L36 722.4L24 728L9.6 733.6C7.46667 734.133 5.86667 733.333 4.8 731.2C4.26667 729.067 5.06667 727.467 7.2 726.4L20.8 721.6L33.6 716L46.4 710.4L52.8 708.8C52.8 708.267 52.8 707.733 52.8 707.2C52.8 704.533 52.8 702.4 52.8 700.8C52.8 700.8 51.4667 701.067 48.8 701.6L36 708L24.8 712.8L12 718.4C9.86667 719.467 8.26667 718.933 7.2 716.8C6.13333 714.667 6.66667 713.067 8.8 712L21.6 705.6L33.6 701.6L45.6 695.2L52 692.8C52 689.6 50.9333 687.733 48.8 687.2L35.2 692.8L21.6 699.2L8.8 704C6.66667 704.533 5.06667 703.733 4 701.6C3.46667 699.467 4.26667 697.867 6.4 696.8L18.4 692.8L32.8 686.4L45.6 680L51.2 677.6C51.2 673.867 50.4 671.2 48.8 669.6L36.8 676L24.8 681.6C24.2667 681.6 24 681.6 24 681.6L11.2 686.4C9.06667 687.467 7.46667 686.667 6.4 684C5.86667 681.867 6.66667 680.533 8.8 680L21.6 675.2L33.6 669.6L45.6 663.2C46.1333 663.2 46.4 663.2 46.4 663.2L50.4 661.6C50.4 660.533 50.4 659.467 50.4 658.4C49.8667 656.8 49.6 655.733 49.6 655.2L37.6 661.6L25.6 668L12.8 673.6C10.6667 674.667 9.06667 674.133 8 672C6.93333 669.867 7.46667 668.267 9.6 667.2L22.4 661.6L34.4 655.2L46.4 648.8C46.4 648.8 47.2 648.533 48.8 648C48.8 644.8 48.5333 641.6 48 638.4L35.2 642.4L23.2 648C23.2 648 22.9333 648 22.4 648L11.2 652C9.06667 652.533 7.46667 651.733 6.4 649.6C5.86667 647.467 6.66667 645.867 8.8 644.8L20 641.6L32 635.2C32 635.2 32.2667 635.2 32.8 635.2L48 631.2C47.4667 629.067 47.2 627.2 47.2 625.6L36 631.2L24 636C24 636 23.7333 636 23.2 636L9.6 639.2C6.93333 640.267 5.33333 639.467 4.8 636.8C4.26667 634.667 5.06667 633.333 7.2 632.8L21.6 628.8L33.6 624.8L44.8 618.4C44.8 618.4 45.6 618.133 47.2 617.6C47.2 614.4 47.2 611.2 47.2 608L36 613.6L24 619.2C23.4667 619.2 23.2 619.2 23.2 619.2L11.2 623.2C9.06667 623.733 7.46667 622.933 6.4 620.8C5.86667 618.667 6.66667 617.067 8.8 616L20.8 612.8L32.8 607.2L44.8 601.6C45.3333 601.067 46.1333 600.8 47.2 600.8C47.2 597.067 46.9333 594.133 46.4 592L34.4 596L23.2 600.8L10.4 605.6C8.26667 606.667 6.66667 606.133 5.6 604C4.53333 601.867 5.33333 600.267 8 599.2L20 593.6L32 589.6C32 589.6 32 589.333 32 588.8L47.2 584.8C47.2 581.6 47.2 579.2 47.2 577.6L35.2 581.6L24 586.4C24 586.4 23.7333 586.4 23.2 586.4L11.2 590.4C9.06667 590.933 7.46667 590.133 6.4 588C5.86667 585.333 6.66667 583.733 8.8 583.2L21.6 579.2L32.8 575.2L47.2 569.6C47.2 566.933 47.2 564.267 47.2 561.6L37.6 566.4L26.4 570.4C26.4 570.4 26.1333 570.4 25.6 570.4L12 575.2C9.86667 575.733 8.26667 574.933 7.2 572.8C6.66667 570.667 7.46667 569.333 9.6 568.8L23.2 564L35.2 559.2L46.4 554.4C46.4 554.4 46.6667 554.4 47.2 554.4C47.2 550.667 46.9333 547.733 46.4 545.6L32.8 548.8L20 555.2L8 560.8C5.86667 561.867 4.26667 561.333 3.2 559.2C2.13333 557.067 2.66667 555.467 4.8 554.4L16.8 548.8L29.6 542.4C30.1333 542.4 30.4 542.4 30.4 542.4L46.4 537.6C46.4 534.933 46.1333 532.533 45.6 530.4L32.8 536L20 539.2L8 544C5.86667 544.533 4.26667 543.733 3.2 541.6C2.66667 539.467 3.46667 537.867 5.6 536.8L17.6 532.8C17.6 532.8 17.8667 532.8 18.4 532.8L30.4 528.8L44 523.2C44.5333 522.667 44.8 522.4 44.8 522.4C44.8 519.733 44.5333 517.067 44 514.4L36 516.8L24.8 521.6L12.8 526.4C10.6667 527.467 9.06667 526.933 8 524.8C6.93333 522.667 7.46667 521.067 9.6 520L21.6 514.4L33.6 510.4C33.6 509.867 33.6 509.6 33.6 509.6L42.4 507.2C42.4 505.067 42.1333 503.2 41.6 501.6C41.6 501.6 41.6 501.333 41.6 500.8C41.6 500.8 41.6 500.533 41.6 500L34.4 503.2L22.4 508L8 513.6C5.86667 514.133 4.26667 513.333 3.2 511.2C2.66667 509.067 3.46667 507.467 5.6 506.4L19.2 501.6L32 496.8L40.8 492.8C40.2667 490.133 39.2 488.533 37.6 488L24 493.6L10.4 498.4C8.26667 499.467 6.66667 498.933 5.6 496.8C5.06667 494.133 5.86667 492.533 8 492L20.8 486.4L35.2 481.6L39.2 479.2C39.2 476 37.8667 473.867 35.2 472.8L23.2 476.8L11.2 480.8C9.06667 481.333 7.46667 480.533 6.4 478.4C5.86667 475.733 6.66667 474.133 8.8 473.6L21.6 469.6L32.8 466.4L38.4 464C37.8667 462.4 37.3333 460.8 36.8 459.2C36.8 457.067 36.2667 455.467 35.2 454.4L20.8 457.6L7.2 464C5.06667 465.067 3.46667 464.533 2.4 462.4C1.33333 460.267 2.13333 458.667 4.8 457.6L18.4 451.2C18.4 451.2 18.6667 451.2 19.2 451.2L32.8 447.2L37.6 446.4C37.6 444.267 36.5333 443.2 34.4 443.2L22.4 448L10.4 452C8.26667 453.067 6.66667 452.533 5.6 450.4C5.06667 448.267 5.86667 446.667 8 445.6L19.2 440.8L32 436.8L36.8 434.4C36.8 430.667 36 428.267 34.4 427.2C34.4 427.2 34.4 427.467 34.4 428L20 431.2L7.2 435.2C4.53333 435.733 2.93333 434.933 2.4 432.8C1.86667 430.667 2.66667 429.067 4.8 428L18.4 424.8L32 420.8L36.8 418.4C36.8 414.133 36 411.2 34.4 409.6L22.4 415.2C22.4 415.2 22.1333 415.2 21.6 415.2L8.8 418.4C6.13333 419.467 4.53333 418.667 4 416C3.46667 413.867 4.26667 412.533 6.4 412L19.2 408L32 403.2L36.8 400.8C36.8 397.6 35.7333 395.467 33.6 394.4L20 400L8 405.6C5.86667 406.667 4.26667 405.867 3.2 403.2C2.13333 401.067 2.66667 399.467 4.8 398.4L16.8 393.6L31.2 388L36.8 385.6C37.3333 381.867 36.5333 379.733 34.4 379.2L23.2 382.4L8.8 388.8C6.66667 389.867 5.06667 389.333 4 387.2C2.93333 385.067 3.73333 383.467 6.4 382.4L20 376C20.5333 376 20.8 376 20.8 376L32 372L37.6 370.4C37.6 366.667 37.0667 364 36 362.4L24.8 367.2C24.8 367.2 24.5333 367.2 24 367.2L11.2 371.2C8.53333 371.733 6.93333 370.933 6.4 368.8C5.86667 366.133 6.66667 364.533 8.8 364L22.4 360L33.6 356L38.4 354.4C38.4 350.667 37.3333 348.8 35.2 348.8L21.6 352.8L8 359.2C5.86667 360.267 4.26667 359.733 3.2 357.6C2.13333 355.467 2.66667 353.867 4.8 352.8L18.4 346.4C18.9333 346.4 19.2 346.4 19.2 346.4L32.8 341.6L39.2 338.4C39.7333 335.2 38.9333 333.333 36.8 332.8L24 338.4L11.2 342.4C9.06667 343.467 7.46667 342.933 6.4 340.8C5.86667 338.133 6.66667 336.533 8.8 336L21.6 331.2L34.4 326.4L40.8 323.2C40.8 320 41.0667 316.533 41.6 312.8L35.2 315.2L21.6 320.8L9.6 325.6C7.46667 326.133 5.86667 325.333 4.8 323.2C4.26667 321.067 5.06667 319.467 7.2 318.4L18.4 314.4L32.8 308L41.6 304.8C42.1333 302.667 42.4 300.267 42.4 297.6L36 300L22.4 304.8L9.6 308C6.93333 309.067 5.33333 308.267 4.8 305.6C4.26667 303.467 5.06667 302.133 7.2 301.6L20.8 297.6L33.6 292.8L43.2 290.4C43.7333 286.667 44.2667 282.933 44.8 279.2L35.2 284L23.2 290.4L9.6 296C7.46667 296.533 5.86667 295.733 4.8 293.6C4.26667 291.467 5.06667 289.867 7.2 288.8L20 284L32 277.6L44 272C44 272 44 271.733 44 271.2C44.5333 271.2 44.8 271.2 44.8 271.2C44.8 269.6 45.0667 267.733 45.6 265.6L33.6 268.8L21.6 274.4L7.2 280.8C5.06667 281.867 3.46667 281.333 2.4 279.2C1.33333 277.067 2.13333 275.467 4.8 274.4L18.4 268L30.4 262.4C30.4 262.4 30.6667 262.133 31.2 261.6L45.6 257.6C45.6 254.933 45.6 252 45.6 248.8L34.4 252L23.2 258.4L11.2 263.2C9.06667 264.267 7.46667 263.733 6.4 261.6C5.33333 259.467 5.86667 257.867 8 256.8L20 252L31.2 245.6C31.2 245.6 31.4667 245.6 32 245.6L45.6 240.8C46.1333 239.2 46.4 237.333 46.4 235.2L36.8 240L24.8 244L12 248.8C9.86667 249.333 8.26667 248.533 7.2 246.4C6.66667 244.267 7.46667 242.667 9.6 241.6L22.4 237.6L34.4 232.8L46.4 227.2C46.4 227.2 46.4 226.933 46.4 226.4C46.4 225.333 46.4 223.733 46.4 221.6C46.4 220 46.4 218.933 46.4 218.4L35.2 224L10.4 231.2C8.26667 232.267 6.66667 231.467 5.6 228.8C5.06667 226.667 5.86667 225.333 8 224.8L20.8 220.8L32.8 217.6L46.4 210.4C46.4 207.733 45.3333 206.133 43.2 205.6L31.2 210.4C30.6667 210.933 30.4 211.2 30.4 211.2L19.2 214.4C17.0667 215.467 15.4667 214.667 14.4 212C13.8667 209.867 14.6667 208.533 16.8 208L24.8 205.6C24.2667 205.067 24 204.8 24 204.8C23.4667 202.133 24.2667 200.533 26.4 200L40.8 195.2L51.2 192C52.8 189.867 54.6667 187.467 56.8 184.8C62.1333 180 67.7333 177.333 73.6 176.8C80 175.733 86.6667 175.2 93.6 175.2C95.2 175.2 96.5333 175.2 97.6 175.2C102.933 175.2 108.533 175.2 114.4 175.2C120.267 175.2 126.133 175.2 132 175.2C141.6 174.667 150.933 174.4 160 174.4C169.6 174.4 179.2 174.667 188.8 175.2C193.067 175.2 197.333 175.2 201.6 175.2C205.867 175.2 210.133 175.467 214.4 176C225.6 176 236.8 176.267 248 176.8C259.733 176.8 271.2 176.8 282.4 176.8C287.2 176.8 292 176.8 296.8 176.8C302.133 176.8 307.467 176.533 312.8 176C328.267 175.467 343.733 175.467 359.2 176C374.667 176 389.333 177.867 403.2 181.6C403.2 181.6 403.467 181.6 404 181.6C418.933 186.933 435.467 193.867 453.6 202.4C471.733 210.4 489.067 219.467 505.6 229.6C522.667 239.733 536.533 250.133 547.2 260.8C560.533 274.133 570.667 291.467 577.6 312.8C585.067 334.133 589.867 353.867 592 372C592.533 382.133 592.533 392.533 592 403.2C592 413.333 591.733 423.467 591.2 433.6C591.2 438.4 590.933 443.2 590.4 448C590.4 452.267 590.133 456.533 589.6 460.8C589.6 466.133 589.6 472 589.6 478.4C589.6 484.267 589.6 490.4 589.6 496.8C589.6 512.267 589.333 528.8 588.8 546.4C588.267 563.467 586.4 579.467 583.2 594.4C580 609.333 574.667 621.333 567.2 630.4C561.333 643.2 553.867 654.933 544.8 665.6C536.267 675.733 526.933 685.333 516.8 694.4C507.733 703.467 495.733 711.467 480.8 718.4C466.4 725.333 450.933 731.467 434.4 736.8C418.4 742.133 403.2 746.933 388.8 751.2ZM78.4 728C78.4 728 78.4 728.267 78.4 728.8C78.4 729.333 78.4 729.6 78.4 729.6L81.6 743.2C83.2 743.2 84.2667 744 84.8 745.6C84.8 746.133 84.8 746.4 84.8 746.4C86.4 746.4 87.7333 746.4 88.8 746.4L95.2 744C97.3333 742.933 98.9333 743.467 100 745.6C100 745.6 100 745.867 100 746.4C101.6 746.4 103.2 746.4 104.8 746.4L110.4 744C112.533 742.933 114.133 743.467 115.2 745.6C115.733 745.6 116 745.867 116 746.4C116.533 746.4 117.067 746.4 117.6 746.4C118.133 746.4 118.667 746.4 119.2 746.4L126.4 743.2C129.067 742.667 130.667 743.467 131.2 745.6C131.2 746.133 131.467 746.4 132 746.4C132 746.4 132.267 746.4 132.8 746.4L142.4 743.2C145.067 742.667 146.667 743.467 147.2 745.6C147.2 746.133 147.2 746.4 147.2 746.4C148.8 746.4 150.133 746.4 151.2 746.4L157.6 744C159.733 742.933 161.333 743.467 162.4 745.6C162.4 745.6 162.4 745.867 162.4 746.4C164 746.4 165.333 746.4 166.4 746.4L173.6 743.2C175.733 742.667 177.333 743.467 178.4 745.6C180 745.6 181.333 745.6 182.4 745.6L189.6 743.2C191.733 742.667 193.067 743.2 193.6 744.8C195.2 744.8 196.8 744.8 198.4 744.8C200 744.8 202.133 744.533 204.8 744C206.4 742.933 207.733 742.933 208.8 744C213.067 744 217.067 743.733 220.8 743.2C221.333 743.2 222.133 743.2 223.2 743.2C230.667 742.667 238.133 742.133 245.6 741.6C253.067 741.067 260.8 740.533 268.8 740C275.2 739.467 281.6 739.467 288 740C294.4 740 301.067 740 308 740C317.067 740 326.133 740 335.2 740C344.267 740 353.333 739.2 362.4 737.6C375.733 734.4 391.467 730.133 409.6 724.8C428.267 719.467 446.133 713.333 463.2 706.4C480.267 698.933 493.6 690.4 503.2 680.8C503.2 680.8 503.467 680.533 504 680C513.6 672 522.4 663.2 530.4 653.6C538.4 643.467 545.067 632.533 550.4 620.8C550.4 620.8 550.4 620.533 550.4 620C550.933 619.467 551.2 619.2 551.2 619.2C557.6 612.8 561.867 602.4 564 588C566.667 573.067 568.267 557.067 568.8 540C569.867 522.4 570.4 506.133 570.4 491.2C570.4 485.333 570.4 479.733 570.4 474.4C570.4 469.067 570.667 464.267 571.2 460C571.2 455.733 571.2 451.467 571.2 447.2C571.733 442.4 572 437.867 572 433.6C572.533 423.467 572.8 413.6 572.8 404C573.333 393.867 573.333 383.733 572.8 373.6C570.667 358.133 566.4 340.8 560 321.6C554.133 301.867 545.333 286.133 533.6 274.4C523.467 264.267 510.4 254.4 494.4 244.8C478.4 235.2 461.867 226.667 444.8 219.2C427.733 211.2 412.267 204.8 398.4 200C385.067 196.267 370.933 194.4 356 194.4C341.6 194.4 327.2 194.667 312.8 195.2C307.467 195.733 302.133 196 296.8 196C292 196 287.2 196 282.4 196C270.667 196 259.2 196 248 196C236.8 195.467 225.333 195.2 213.6 195.2C209.333 194.667 205.067 194.4 200.8 194.4C196.533 194.4 192.267 194.4 188 194.4C178.933 193.867 169.6 193.6 160 193.6C150.4 193.6 141.067 193.867 132 194.4C126.133 194.4 120.267 194.4 114.4 194.4C108.533 194.4 102.933 194.4 97.6 194.4C96.5333 194.4 94.6667 194.4 92 194.4C88.2667 193.867 84.2667 193.867 80 194.4C76.2667 194.4 73.0667 195.733 70.4 198.4C67.7333 201.6 66.1333 205.333 65.6 209.6C65.0667 213.333 65.0667 217.067 65.6 220.8C65.6 223.467 65.6 225.333 65.6 226.4C65.6 234.933 65.3333 243.467 64.8 252C64.8 260.533 64.5333 269.067 64 277.6C63.4667 280.8 63.2 283.733 63.2 286.4C63.2 286.933 63.2 287.467 63.2 288C62.6667 291.733 62.1333 295.467 61.6 299.2C62.1333 299.733 62.6667 300.533 63.2 301.6C63.7333 303.2 62.9333 304.533 60.8 305.6C60.8 308.8 60.5333 311.733 60 314.4C61.0667 314.933 61.8667 315.733 62.4 316.8C63.4667 318.933 62.6667 320.8 60 322.4C59.4667 325.067 59.2 327.733 59.2 330.4C60.8 329.867 62.1333 330.667 63.2 332.8C63.7333 334.933 62.1333 336.533 58.4 337.6C58.4 340.267 58.4 343.2 58.4 346.4C60.5333 345.333 61.8667 345.867 62.4 348C63.4667 350.133 61.8667 352.267 57.6 354.4C57.6 357.6 57.8667 360 58.4 361.6C60.5333 361.067 62.1333 361.867 63.2 364C63.7333 366.133 61.6 368.267 56.8 370.4C56.8 373.6 57.3333 376 58.4 377.6C60.5333 376.533 62.1333 377.067 63.2 379.2C63.7333 381.867 62.9333 383.467 60.8 384L56 385.6C56 389.333 56.8 391.733 58.4 392.8C60.5333 392.267 62.1333 393.067 63.2 395.2C63.7333 397.333 62.9333 398.933 60.8 400L56 401.6C56 405.333 56.5333 407.733 57.6 408.8C60.2667 407.733 61.8667 408.267 62.4 410.4C63.4667 412.533 62.9333 414.133 60.8 415.2L56 417.6C56 421.333 56.5333 423.733 57.6 424.8C59.7333 423.733 61.3333 424.267 62.4 426.4C63.4667 428.533 62.9333 430.133 60.8 431.2L56 433.6C56 436.8 56.8 438.933 58.4 440C61.0667 439.467 62.6667 440.267 63.2 442.4C63.7333 444.533 62.9333 446.133 60.8 447.2L56.8 448C56.8 451.733 57.3333 454.4 58.4 456C60.5333 454.933 62.1333 455.467 63.2 457.6C63.7333 459.733 61.8667 461.867 57.6 464C57.6 467.2 57.8667 469.6 58.4 471.2C60.5333 470.667 62.1333 471.467 63.2 473.6C63.7333 475.733 62.1333 477.6 58.4 479.2C58.9333 481.333 59.2 483.733 59.2 486.4C61.3333 486.4 62.6667 487.467 63.2 489.6C63.7333 491.733 62.6667 493.067 60 493.6C60 494.667 60 496 60 497.6C60.5333 499.2 61.0667 500.8 61.6 502.4C62.1333 502.933 62.6667 503.733 63.2 504.8C63.7333 506.4 63.4667 507.733 62.4 508.8C64.5333 521.067 65.6 533.6 65.6 546.4C66.1333 559.2 66.4 572 66.4 584.8C66.4 596.533 66.4 608.533 66.4 620.8C66.4 632.533 67.2 644.267 68.8 656C69.3333 656 69.6 656 69.6 656C69.6 663.467 69.8667 670.933 70.4 678.4C70.9333 685.867 71.4667 693.067 72 700C72 701.6 71.7333 703.467 71.2 705.6C71.2 709.333 71.4667 712.267 72 714.4C72.5333 717.067 73.3333 719.467 74.4 721.6C76 723.733 77.3333 725.867 78.4 728ZM277.6 598.4L260.8 599.2C259.2 599.2 257.867 598.4 256.8 596.8C255.2 595.2 254.4 593.867 254.4 592.8C253.867 574.667 253.6 556.533 253.6 538.4C253.6 520.267 253.333 502.133 252.8 484C251.733 465.333 250.933 446.933 250.4 428.8C250.4 410.133 250.933 391.733 252 373.6C252 368.267 252 362.933 252 357.6C252.533 352.267 252.8 346.933 252.8 341.6C252.8 341.6 253.067 341.067 253.6 340C254.133 338.4 254.4 337.6 254.4 337.6C257.067 335.467 259.467 334.4 261.6 334.4C263.733 334.4 266.133 334.4 268.8 334.4C271.467 334.933 273.6 335.2 275.2 335.2C280 335.2 285.6 335.2 292 335.2C303.733 334.667 315.733 335.2 328 336.8C340.267 337.867 351.2 342.667 360.8 351.2C365.067 355.467 368.8 360.533 372 366.4C376.8 374.4 379.467 383.2 380 392.8C381.067 401.867 381.867 411.2 382.4 420.8C382.4 434.667 382.133 448.8 381.6 463.2C381.6 477.6 381.333 492 380.8 506.4C380.267 518.667 379.2 530.933 377.6 543.2C376.533 554.933 372 565.867 364 576C354.4 587.2 342.4 593.867 328 596C314.133 597.6 300.267 598.4 286.4 598.4C282.667 598.4 279.733 598.4 277.6 598.4ZM277.6 579.2C279.2 579.2 280.8 579.2 282.4 579.2C284 579.2 285.867 579.2 288 579.2C292.8 579.2 297.6 579.2 302.4 579.2C307.733 579.2 313.067 578.933 318.4 578.4L331.2 573.6L346.4 565.6C347.467 565.067 348.267 564.267 348.8 563.2C351.467 560.533 353.6 557.333 355.2 553.6L348.8 555.2L336 559.2L324.8 564.8C322.667 565.867 320.8 565.333 319.2 563.2C318.133 561.067 318.667 559.467 320.8 558.4L332.8 552.8C332.8 552.8 332.8 552.533 332.8 552C333.333 552 333.6 552 333.6 552L346.4 548.8L358.4 544.8C358.933 542.667 359.467 540.267 360 537.6L352.8 540.8L340.8 544.8L327.2 550.4C325.067 551.467 323.467 550.933 322.4 548.8C321.333 546.667 321.867 545.067 324 544L337.6 537.6C338.133 537.6 338.4 537.6 338.4 537.6L350.4 534.4L360.8 528.8C360.8 526.133 361.067 522.667 361.6 518.4L353.6 521.6L340.8 524.8L328 529.6C325.867 530.133 324.267 529.333 323.2 527.2C322.667 525.067 323.467 523.467 325.6 522.4L339.2 518.4L351.2 514.4L361.6 510.4C361.6 508.8 361.6 507.2 361.6 505.6C361.6 504 361.867 502.4 362.4 500.8L352.8 504.8L340 510.4L327.2 516.8C325.067 517.867 323.467 517.333 322.4 515.2C321.333 513.067 321.867 511.467 324 510.4L336.8 504L349.6 497.6L362.4 492.8C362.4 490.133 362.4 487.733 362.4 485.6L354.4 488.8C354.4 489.333 354.4 489.6 354.4 489.6L341.6 493.6L327.2 498.4C325.067 498.933 323.467 498.133 322.4 496C321.867 493.867 322.667 492.267 324.8 491.2L339.2 487.2L352 482.4L362.4 477.6C362.933 474.4 363.2 471.2 363.2 468L354.4 472C354.4 472 354.133 472 353.6 472L341.6 476L328 480C325.867 480.533 324.267 479.733 323.2 477.6C322.667 474.933 323.733 473.333 326.4 472.8L340 468.8L351.2 465.6L363.2 460C363.2 456.8 363.2 453.867 363.2 451.2L352.8 456L339.2 461.6L328 466.4C325.867 466.933 324.267 466.133 323.2 464C322.133 461.867 322.933 460.267 325.6 459.2L336.8 455.2L349.6 449.6L363.2 443.2C363.2 439.467 363.2 435.467 363.2 431.2L349.6 435.2L336 440.8L322.4 446.4C320.267 447.467 318.667 446.933 317.6 444.8C316.533 442.667 317.067 441.067 319.2 440L332.8 434.4C332.8 434.4 332.8 434.133 332.8 433.6L347.2 428.8L363.2 424C363.2 422.933 363.2 421.867 363.2 420.8C362.667 419.733 362.4 418.133 362.4 416L348.8 421.6L337.6 427.2C337.067 427.2 336.8 427.2 336.8 427.2L325.6 430.4C323.467 431.467 321.867 430.933 320.8 428.8C320.267 426.133 321.067 424.533 323.2 424L334.4 420L346.4 415.2L362.4 408C362.4 405.867 362.133 403.733 361.6 401.6C361.6 399.467 361.067 397.6 360 396L346.4 400.8L332.8 404.8L320 410.4C317.333 410.933 315.733 410.133 315.2 408C314.133 405.867 314.667 404.267 316.8 403.2L330.4 398.4L344.8 393.6L357.6 388.8C357.6 388.8 358.4 388.533 360 388C360 386.933 359.467 385.867 358.4 384.8C357.867 383.2 356.267 382.133 353.6 381.6L340 385.6L326.4 390.4L312.8 394.4C310.667 394.933 309.333 394.133 308.8 392C307.733 389.333 308.533 387.733 311.2 387.2L324 384L337.6 378.4C337.6 378.4 337.867 378.4 338.4 378.4L354.4 373.6C353.333 372 352 370.667 350.4 369.6C349.333 368.533 347.467 367.733 344.8 367.2L332.8 372.8C332.8 372.8 332.8 373.067 332.8 373.6L318.4 376.8L307.2 381.6C305.067 382.667 303.467 381.867 302.4 379.2C301.867 377.067 302.667 375.733 304.8 375.2L316 370.4C316 370.4 316.267 370.4 316.8 370.4L330.4 366.4L340.8 360.8C338.667 359.2 336 358.133 332.8 357.6L328.8 359.2L316.8 364L303.2 368L289.6 373.6C287.467 374.667 285.867 373.867 284.8 371.2C284.267 369.067 285.067 367.733 287.2 367.2L300 361.6C300.533 361.6 300.8 361.6 300.8 361.6L314.4 356.8L320.8 354.4C317.6 354.4 313.867 354.133 309.6 353.6L302.4 356.8L290.4 363.2L277.6 368C274.933 369.067 273.333 368.533 272.8 366.4C271.733 364.267 272.267 362.667 274.4 361.6L291.2 354.4C290.133 354.4 289.067 354.4 288 354.4L283.2 356.8L271.2 360.8C271.2 364.533 271.2 368.8 271.2 373.6C270.133 391.733 269.6 410.133 269.6 428.8C270.133 446.933 270.933 465.067 272 483.2C272.533 499.2 272.8 515.2 272.8 531.2C272.8 547.2 272.8 563.2 272.8 579.2H277.6Z" fill="url(#paint0_linear_271_66)"/>
<path d="M1077.6 726.4C1077.6 728 1076.8 729.067 1075.2 729.6L1062.4 735.2L1057.6 736.8C1054.93 737.867 1052.27 739.2 1049.6 740.8C1046.93 742.4 1044.53 743.733 1042.4 744.8C1042.4 745.333 1041.87 745.6 1040.8 745.6C1040.27 746.133 1040 746.4 1040 746.4C1032.53 748.533 1024.53 750.667 1016 752.8L1011.2 754.4C1010.13 754.933 1008.53 755.2 1006.4 755.2L994.4 759.2C992.8 759.733 991.467 759.2 990.4 757.6L978.4 761.6C977.333 761.6 976 761.067 974.4 760L962.4 764.8C960.267 765.333 958.667 764.8 957.6 763.2L947.2 768.8C945.067 769.867 943.467 769.333 942.4 767.2C941.867 766.667 941.6 765.867 941.6 764.8C941.6 764.267 941.6 763.733 941.6 763.2C941.6 763.733 941.6 764 941.6 764L928 767.2C926.4 767.733 925.067 767.2 924 765.6L912 772C909.867 773.067 908.267 772.533 907.2 770.4C906.667 769.333 906.4 768.533 906.4 768L897.6 771.2C895.467 772.267 893.867 771.733 892.8 769.6C892.267 767.467 893.067 765.867 895.2 764.8L904 760.8L894.4 764L882.4 768.8C880.267 769.867 878.667 769.333 877.6 767.2C877.067 766.133 877.067 765.067 877.6 764L865.6 768.8C863.467 769.867 861.867 769.333 860.8 767.2C860.8 767.2 860.8 766.933 860.8 766.4L848.8 772C846.667 773.067 845.067 772.533 844 770.4C843.467 769.333 843.467 768.267 844 767.2L833.6 770.4C831.467 771.467 829.867 770.933 828.8 768.8C828.267 766.133 829.067 764.533 831.2 764L836.8 761.6C836.267 761.6 834.933 762.133 832.8 763.2L820.8 767.2C818.667 768.267 817.333 767.733 816.8 765.6L805.6 770.4C803.467 771.467 801.867 770.933 800.8 768.8C800.267 767.2 800.533 765.867 801.6 764.8L792 767.2C789.333 768.267 787.733 767.467 787.2 764.8C787.2 764.8 786.667 765.067 785.6 765.6L774.4 768.8C772.8 769.333 771.467 769.067 770.4 768L760.8 772.8C758.667 773.867 757.067 773.333 756 771.2C755.467 770.133 755.733 769.067 756.8 768L746.4 770.4C744.267 771.467 742.667 770.667 741.6 768C741.6 768 741.333 768.267 740.8 768.8L727.2 773.6C725.067 774.667 723.467 774.133 722.4 772C721.867 769.867 722.667 768.267 724.8 767.2L730.4 764.8C729.867 764.8 728.533 765.333 726.4 766.4L712 771.2C709.867 772.267 708.267 771.733 707.2 769.6C707.2 769.067 707.2 768.8 707.2 768.8L698.4 770.4C695.733 771.467 694.133 770.667 693.6 768C693.6 766.933 693.867 765.867 694.4 764.8H691.2L682.4 768C680.267 769.067 678.667 768.533 677.6 766.4L672 768C669.867 769.067 668.267 768.533 667.2 766.4C667.2 765.867 666.4 765.867 664.8 766.4L651.2 771.2C649.067 772.267 647.467 771.733 646.4 769.6C645.867 768.533 645.867 767.467 646.4 766.4L640.8 768.8C638.667 769.867 637.067 769.333 636 767.2C636 766.667 636 765.867 636 764.8L623.2 768C620.533 769.067 618.933 768.267 618.4 765.6C617.333 763.467 617.867 761.867 620 760.8L632 755.2C632 755.2 632 754.933 632 754.4C632.533 754.4 632.8 754.4 632.8 754.4L644.8 751.2C644.8 750.667 644.8 750.4 644.8 750.4L649.6 749.6C649.6 749.067 648.533 748.8 646.4 748.8L634.4 753.6L620 758.4L607.2 763.2C605.067 764.267 603.467 763.733 602.4 761.6C601.333 759.467 601.867 757.867 604 756.8L617.6 751.2L632 747.2L644.8 741.6C644.267 740 643.467 738.667 642.4 737.6C641.867 736 641.333 734.4 640.8 732.8L628.8 736L617.6 741.6L604.8 746.4C602.667 747.467 601.067 746.933 600 744.8C598.933 742.667 599.733 741.067 602.4 740L614.4 734.4L625.6 729.6C625.6 729.6 625.867 729.6 626.4 729.6L639.2 725.6C638.667 724 638.133 722.133 637.6 720L629.6 724L617.6 728L604.8 732.8C602.667 733.333 601.067 732.533 600 730.4C599.467 728.267 600.267 726.667 602.4 725.6L627.2 716.8L637.6 712.8C637.067 710.667 636.8 707.733 636.8 704C636.8 702.933 636.8 702.133 636.8 701.6L626.4 704.8L612.8 710.4L600.8 716C598.667 717.067 597.067 716.533 596 714.4C594.933 712.267 595.467 710.667 597.6 709.6L609.6 703.2L624 698.4C623.467 698.4 623.467 698.133 624 697.6L636.8 694.4C636.8 693.333 636.8 692.267 636.8 691.2C636.8 690.667 636.8 689.867 636.8 688.8L625.6 692.8L613.6 699.2L600.8 705.6C598.667 706.667 597.067 705.867 596 703.2C594.933 701.067 595.467 699.467 597.6 698.4L622.4 686.4C622.4 686.4 622.667 686.4 623.2 686.4L636 681.6C635.467 680 635.2 678.4 635.2 676.8C635.2 675.2 635.2 673.6 635.2 672L628 675.2L614.4 679.2L600.8 685.6C598.667 686.667 597.067 686.133 596 684C594.933 681.867 595.467 680.267 597.6 679.2L611.2 672.8C611.733 672.8 612 672.8 612 672.8L625.6 668L634.4 664.8C634.4 662.667 634.133 660.533 633.6 658.4L628.8 660.8L602.4 671.2C600.267 672.267 598.667 671.733 597.6 669.6C597.067 667.467 597.867 665.867 600 664.8L612.8 659.2L626.4 654.4L633.6 651.2C633.6 649.067 633.333 646.933 632.8 644.8C632.8 643.733 632.8 642.4 632.8 640.8L627.2 643.2L613.6 648L600 653.6C597.867 654.667 596.267 653.867 595.2 651.2C594.667 649.067 595.467 647.733 597.6 647.2L610.4 641.6L624.8 636L632.8 633.6C632.8 632 632.8 630.133 632.8 628L627.2 630.4L615.2 634.4L601.6 638.4C599.467 639.467 597.867 638.667 596.8 636C596.267 633.867 597.067 632.533 599.2 632L613.6 627.2L624.8 624L632.8 620C633.333 617.867 633.6 615.2 633.6 612L627.2 614.4L614.4 620.8L601.6 625.6C599.467 626.133 597.867 625.333 596.8 623.2C596.267 621.067 597.067 619.467 599.2 618.4L611.2 614.4L624 608L633.6 604C633.6 599.733 633.867 596.533 634.4 594.4L628 596.8L616.8 601.6L603.2 608C601.067 609.067 599.467 608.533 598.4 606.4C597.333 604.267 597.867 602.667 600 601.6L613.6 595.2L624.8 590.4C624.8 590.4 625.067 590.4 625.6 590.4C625.6 589.867 625.6 589.6 625.6 589.6L634.4 587.2C634.4 586.133 634.4 585.067 634.4 584C634.4 581.867 634.4 579.733 634.4 577.6L628 580L614.4 586.4L601.6 591.2C599.467 591.733 597.867 590.933 596.8 588.8C596.267 586.667 597.067 585.067 599.2 584L611.2 580L625.6 573.6L634.4 570.4C634.4 568.267 634.4 565.867 634.4 563.2L628.8 564.8L615.2 569.6L600.8 576C598.667 577.067 597.067 576.533 596 574.4C594.933 572.267 595.733 570.667 598.4 569.6L612 563.2L626.4 557.6L633.6 555.2C633.6 554.667 633.6 554.133 633.6 553.6C633.6 552.533 633.6 551.733 633.6 551.2C633.6 550.133 633.6 549.333 633.6 548.8L626.4 550.4L615.2 556.8L601.6 562.4C599.467 563.467 597.867 562.933 596.8 560.8C595.733 558.667 596.267 557.067 598.4 556L612 550.4L623.2 544C623.2 544 623.467 544 624 544L633.6 541.6C633.6 538.4 633.6 535.467 633.6 532.8L624.8 535.2L612 538.4L599.2 544C597.067 545.067 595.467 544.267 594.4 541.6C593.867 539.467 594.667 538.133 596.8 537.6L609.6 532C609.6 532 609.867 532 610.4 532L622.4 528L633.6 525.6C633.6 522.933 632.267 521.6 629.6 521.6L616 528L603.2 533.6C601.067 534.667 599.467 534.133 598.4 532C597.333 529.867 597.867 528.267 600 527.2L612.8 520.8L626.4 515.2L633.6 511.2C633.6 510.667 633.6 510.133 633.6 509.6C633.6 506.4 633.867 503.2 634.4 500L625.6 503.2L611.2 508.8L600 512.8C597.867 513.333 596.267 512.533 595.2 510.4C594.667 508.267 595.467 506.667 597.6 505.6L609.6 502.4L623.2 496.8L635.2 492C635.2 489.867 635.467 487.733 636 485.6L627.2 488.8L616 493.6L601.6 500C599.467 501.067 597.867 500.533 596.8 498.4C595.733 496.267 596.533 494.667 599.2 493.6L612.8 487.2L624 482.4C624 482.4 624.267 482.4 624.8 482.4C624.8 481.867 624.8 481.6 624.8 481.6L636.8 477.6C636.8 475.467 636.8 473.6 636.8 472C637.333 470.4 637.6 468.8 637.6 467.2L626.4 470.4L613.6 474.4L600.8 480C598.667 480.533 597.067 479.733 596 477.6C595.467 475.467 596.267 473.867 598.4 472.8L611.2 468C611.2 468 611.467 467.733 612 467.2L624 464L637.6 459.2C637.6 459.2 637.867 459.2 638.4 459.2C638.933 456.533 639.2 454.133 639.2 452L628.8 457.6L617.6 461.6C617.6 461.6 617.333 461.6 616.8 461.6L605.6 465.6C603.467 466.133 601.867 465.333 600.8 463.2C600.267 461.067 601.067 459.467 603.2 458.4L614.4 455.2L626.4 450.4L638.4 444.8C638.4 444.8 638.933 444.533 640 444C640 440.8 640 438.133 640 436L626.4 440L615.2 445.6L603.2 451.2C601.067 452.267 599.467 451.733 598.4 449.6C597.333 447.467 597.867 445.867 600 444.8L612 439.2L623.2 433.6C623.2 433.6 623.467 433.6 624 433.6L640.8 428C640.8 423.733 640.533 420.8 640 419.2L628 424L616 430.4L603.2 436.8C601.067 437.867 599.467 437.333 598.4 435.2C597.333 433.067 597.867 431.467 600 430.4L612.8 424L624.8 417.6L636.8 412.8C637.333 412.267 638.933 411.733 641.6 411.2C641.6 408.533 641.333 406.667 640.8 405.6L628.8 410.4L614.4 414.4L600.8 420C598.667 421.067 597.067 420.533 596 418.4C594.933 416.267 595.733 414.667 598.4 413.6L612 407.2C612 407.2 612.267 407.2 612.8 407.2L626.4 403.2L641.6 397.6C641.6 396 641.333 394.4 640.8 392.8C640.8 390.667 640 389.067 638.4 388L625.6 392.8L614.4 398.4L601.6 404C599.467 404.533 597.867 403.733 596.8 401.6C595.733 399.467 596.533 397.867 599.2 396.8L611.2 392L623.2 386.4L636 380.8C636 380.8 636.267 380.8 636.8 380.8L641.6 380C641.067 377.333 640.8 374.667 640.8 372L628 376.8L616 380.8L602.4 387.2C600.267 388.267 598.667 387.733 597.6 385.6C596.533 383.467 597.067 381.867 599.2 380.8L612.8 374.4L625.6 369.6L640.8 364.8V364C640.8 361.333 640.533 359.467 640 358.4L628 363.2L616.8 368.8C616.267 368.8 616 368.8 616 368.8L603.2 372.8C600.533 373.333 598.933 372.533 598.4 370.4C597.867 367.733 598.667 366.133 600.8 365.6L613.6 361.6L624.8 356.8L640.8 349.6C640.8 346.933 640.533 344.267 640 341.6L628.8 346.4L614.4 349.6L601.6 353.6C598.933 354.133 597.333 353.333 596.8 351.2C596.267 349.067 597.067 347.467 599.2 346.4L612.8 343.2L626.4 339.2L640 334.4C640 333.867 640 333.6 640 333.6C640 333.6 640 333.333 640 332.8C640 331.2 640 329.333 640 327.2L626.4 332.8L612.8 339.2L600 344.8C597.867 345.867 596.267 345.333 595.2 343.2C594.133 341.067 594.667 339.467 596.8 338.4L609.6 332L624 326.4L640 319.2C640 315.467 639.733 312.533 639.2 310.4L625.6 314.4L612 320L599.2 324.8C597.067 325.333 595.467 324.533 594.4 322.4C593.867 320.267 594.667 318.667 596.8 317.6L608.8 313.6L623.2 307.2L640 302.4C639.467 300.8 639.2 298.667 639.2 296L628 302.4L616 308C616 308 615.733 308 615.2 308L602.4 311.2C599.733 312.267 598.133 311.467 597.6 308.8C597.067 306.667 597.867 305.333 600 304.8L612.8 300.8L624.8 296L636.8 289.6C636.8 289.6 637.6 289.333 639.2 288.8C639.2 286.133 639.2 282.933 639.2 279.2L625.6 284.8L613.6 289.6L600 294.4C597.867 294.933 596.267 294.133 595.2 292C594.667 289.867 595.467 288.267 597.6 287.2L611.2 283.2L623.2 278.4L636.8 272C637.333 272 637.867 272 638.4 272C638.4 268.8 638.4 265.867 638.4 263.2L627.2 267.2L615.2 272.8C614.667 273.333 614.4 273.6 614.4 273.6L601.6 276.8C598.933 277.333 597.333 276.533 596.8 274.4C596.267 272.267 597.067 270.933 599.2 270.4L612 266.4L624 260.8C624 260.8 624.267 260.8 624.8 260.8C624.8 260.267 624.8 260 624.8 260L636.8 256C636.8 256 637.067 256 637.6 256C637.6 256 637.867 255.733 638.4 255.2C637.867 253.067 637.6 250.933 637.6 248.8L625.6 253.6L612 257.6L600.8 262.4C598.667 262.933 597.067 262.133 596 260C595.467 257.867 596.267 256.267 598.4 255.2L609.6 250.4C609.6 250.4 609.867 250.4 610.4 250.4L623.2 247.2L637.6 241.6C637.6 238.933 637.6 236.533 637.6 234.4L627.2 237.6L613.6 243.2L599.2 248.8C597.067 249.867 595.467 249.067 594.4 246.4C593.867 244.267 594.667 242.933 596.8 242.4L610.4 236.8L624.8 230.4L637.6 226.4C637.6 225.867 637.6 225.6 637.6 225.6C637.067 221.867 636.8 219.2 636.8 217.6L625.6 222.4L614.4 227.2C614.4 227.2 614.133 227.2 613.6 227.2L601.6 230.4C599.467 231.467 597.867 230.667 596.8 228C596.267 225.867 597.067 224.533 599.2 224L612 220L623.2 216L636.8 209.6C637.333 209.6 637.6 209.6 637.6 209.6C637.6 208.533 637.867 207.467 638.4 206.4L633.6 208L621.6 212.8L607.2 219.2C605.067 220.267 603.467 219.733 602.4 217.6C601.333 215.467 602.133 213.867 604.8 212.8L617.6 207.2C617.067 206.667 616.8 206.4 616.8 206.4C616.267 203.733 617.067 202.133 619.2 201.6L632 196.8L644.8 191.2C645.333 190.133 646.133 189.067 647.2 188C652.533 182.667 658.133 179.733 664 179.2C670.4 178.133 677.067 177.6 684 177.6C685.6 177.6 686.933 177.6 688 177.6C699.2 177.067 710.4 176.8 721.6 176.8C732.8 176.267 744 176 755.2 176C764.8 175.467 774.133 175.2 783.2 175.2C792.8 175.2 802.4 175.2 812 175.2C825.333 175.2 838.667 175.2 852 175.2C865.333 175.2 878.4 174.933 891.2 174.4C901.333 173.333 916 173.067 935.2 173.6C954.933 174.133 975.733 175.733 997.6 178.4C1019.47 181.067 1039.47 184.8 1057.6 189.6C1075.73 193.867 1088.53 199.467 1096 206.4C1111.47 216 1124.27 227.2 1134.4 240C1145.6 253.333 1153.6 269.333 1158.4 288C1163.2 306.133 1166.93 323.467 1169.6 340C1171.2 352.8 1171.47 365.6 1170.4 378.4C1169.33 390.667 1165.87 402.667 1160 414.4C1152 429.333 1141.07 442.667 1127.2 454.4C1136.8 459.733 1145.6 466.4 1153.6 474.4C1165.87 486.133 1176 501.6 1184 520.8C1192.53 540 1196.27 558.133 1195.2 575.2C1194.67 594.4 1191.47 612.533 1185.6 629.6C1181.87 640.8 1177.07 651.2 1171.2 660.8C1171.2 660.8 1170.93 661.067 1170.4 661.6C1169.87 662.667 1169.6 663.2 1169.6 663.2C1157.33 675.467 1142.93 686.933 1126.4 697.6C1110.4 707.733 1094.13 717.333 1077.6 726.4ZM687.2 743.2C689.333 742.667 690.933 743.467 692 745.6C693.6 745.6 695.2 745.6 696.8 745.6L702.4 744C704.533 742.933 705.867 743.467 706.4 745.6C706.933 745.6 707.2 745.6 707.2 745.6C709.333 745.6 710.933 745.6 712 745.6L717.6 743.2C719.733 742.667 721.333 743.467 722.4 745.6C723.467 745.6 724.267 745.6 724.8 745.6L732.8 743.2C734.933 742.667 736.533 743.467 737.6 745.6C739.2 745.6 741.067 745.6 743.2 745.6L748 744C750.133 742.933 751.733 743.467 752.8 745.6C754.933 745.6 756.8 745.6 758.4 745.6L763.2 743.2C764.8 742.667 766.133 743.2 767.2 744.8C768.8 744.8 770.4 744.8 772 744.8C773.6 744.8 775.733 744.533 778.4 744C780 742.933 781.333 743.2 782.4 744.8C784 744.8 785.6 744.8 787.2 744.8C788.8 744.267 790.667 744 792.8 744C794.4 742.933 795.733 742.933 796.8 744C798.933 744 800.8 744 802.4 744C804.533 744 806.667 743.733 808.8 743.2C809.867 743.2 810.667 743.2 811.2 743.2C819.733 743.2 828.267 743.2 836.8 743.2C845.867 742.667 854.667 742.133 863.2 741.6C869.067 741.6 875.2 741.6 881.6 741.6C888 741.6 894.133 741.6 900 741.6C908.533 742.133 916.8 742.4 924.8 742.4C933.333 742.4 941.867 742.133 950.4 741.6C964.267 740.533 978.133 739.2 992 737.6C1006.4 735.467 1020.27 732.267 1033.6 728C1053.33 717.333 1074.4 705.867 1096.8 693.6C1119.73 680.8 1139.2 666.4 1155.2 650.4C1160.53 641.867 1164.8 632.8 1168 623.2C1172.8 607.733 1175.47 591.467 1176 574.4C1177.07 560 1173.87 544.533 1166.4 528C1159.47 510.933 1150.93 497.6 1140.8 488C1132.8 480.533 1124.27 474.4 1115.2 469.6C1111.47 467.467 1107.47 466.4 1103.2 466.4C1098.93 465.867 1096.53 462.667 1096 456.8C1095.47 452.533 1096.27 449.867 1098.4 448.8C1100.53 447.2 1102.93 445.867 1105.6 444.8C1108.8 443.733 1110.93 442.667 1112 441.6C1125.33 431.467 1135.47 419.467 1142.4 405.6C1147.73 396 1150.67 385.867 1151.2 375.2C1152.27 364.533 1152.27 353.6 1151.2 342.4C1148.53 328 1145.07 312.267 1140.8 295.2C1136.53 278.133 1129.33 263.733 1119.2 252C1114.4 246.133 1109.07 240.8 1103.2 236C1097.33 230.667 1091.2 225.867 1084.8 221.6C1084.8 221.6 1084.53 221.6 1084 221.6C1084 221.067 1083.73 220.8 1083.2 220.8C1077.87 215.467 1066.67 210.933 1049.6 207.2C1032.53 202.933 1013.33 199.733 992 197.6C971.2 195.467 951.467 194.133 932.8 193.6C914.667 192.533 901.333 192.267 892.8 192.8C879.467 193.867 866.133 194.4 852.8 194.4C839.467 194.4 826.133 194.4 812.8 194.4C803.2 194.4 793.6 194.4 784 194.4C774.933 194.4 765.6 194.667 756 195.2C744.8 195.2 733.6 195.467 722.4 196C711.2 196 700 196 688.8 196C687.733 196.533 685.867 196.533 683.2 196C679.467 196 675.467 196.267 671.2 196.8C666.933 197.333 663.467 198.933 660.8 201.6C658.133 204.267 656.533 207.733 656 212C656 215.733 656 219.733 656 224C656.533 226.133 656.8 227.467 656.8 228V228.8C656.8 245.867 657.067 263.2 657.6 280.8C658.667 297.867 659.2 315.2 659.2 332.8C659.2 338.133 659.2 343.467 659.2 348.8C659.733 353.6 660 358.667 660 364C660.533 375.2 660.8 386.4 660.8 397.6C660.8 408.8 660.533 420 660 431.2C659.467 440.8 658.667 450.4 657.6 460C656.533 469.6 655.467 478.933 654.4 488C654.933 488.533 655.2 489.067 655.2 489.6C655.733 490.667 655.467 491.733 654.4 492.8C653.867 496.533 653.6 500 653.6 503.2C654.133 503.2 654.4 503.733 654.4 504.8C655.467 506.4 654.933 508 652.8 509.6C652.8 510.133 652.8 510.4 652.8 510.4C652.8 513.067 652.8 515.733 652.8 518.4C653.867 518.4 654.667 518.933 655.2 520C655.733 522.133 654.933 524 652.8 525.6C652.8 528.267 652.8 530.933 652.8 533.6C653.333 534.133 653.867 534.933 654.4 536C655.467 538.133 654.933 539.733 652.8 540.8C652.8 542.933 652.8 545.867 652.8 549.6C653.867 550.133 654.667 550.933 655.2 552C655.733 554.133 654.933 555.467 652.8 556C653.333 559.733 653.6 562.933 653.6 565.6C654.133 566.133 654.667 566.933 655.2 568C655.733 569.6 655.2 570.933 653.6 572C653.6 575.2 653.6 578.4 653.6 581.6C654.133 581.6 654.667 582.133 655.2 583.2C655.733 584.8 655.2 586.133 653.6 587.2C653.6 589.867 653.333 593.067 652.8 596.8C653.867 597.333 654.667 597.867 655.2 598.4C655.733 600.533 654.933 602.133 652.8 603.2C652.8 603.2 652.8 603.467 652.8 604C652.8 607.733 652.8 610.4 652.8 612C653.333 612.533 653.867 613.333 654.4 614.4C655.467 616.533 654.667 618.133 652 619.2C652 622.4 652 625.333 652 628C653.6 628 654.667 628.8 655.2 630.4C655.733 632.533 654.667 634.133 652 635.2C652 637.867 652 640.533 652 643.2C653.6 643.733 654.667 644.533 655.2 645.6C655.733 647.733 654.933 649.333 652.8 650.4C652.8 653.067 652.8 656 652.8 659.2C653.867 659.733 654.667 660.533 655.2 661.6C655.733 663.2 655.2 664.533 653.6 665.6C653.6 667.2 653.6 669.067 653.6 671.2C654.133 672.8 654.4 674.667 654.4 676.8C654.933 677.867 655.2 678.933 655.2 680C655.2 683.733 655.467 686.933 656 689.6C656 691.733 656 693.867 656 696C656 697.6 656 699.467 656 701.6C656 704.8 656 708.267 656 712C656.533 715.2 657.067 718.4 657.6 721.6C658.133 724.267 658.933 726.667 660 728.8C661.067 730.933 662.133 733.333 663.2 736L672.8 743.2C674.933 742.667 676.267 743.467 676.8 745.6C677.867 745.6 679.2 745.6 680.8 745.6L687.2 743.2ZM860.8 409.6C860.8 409.6 860.267 409.6 859.2 409.6C858.133 409.067 857.6 408.8 857.6 408.8L848.8 402.4C848.8 401.867 848.267 401.067 847.2 400C846.667 398.4 846.4 397.333 846.4 396.8C846.4 395.2 846.4 392.8 846.4 389.6C846.4 381.6 846.4 373.867 846.4 366.4C846.4 358.4 846.4 350.4 846.4 342.4C846.4 342.4 846.4 342.133 846.4 341.6C845.867 340.533 845.867 339.467 846.4 338.4C846.4 337.333 846.4 336.267 846.4 335.2C845.333 334.667 844.533 333.867 844 332.8C843.467 331.2 843.733 329.867 844.8 328.8C844.8 326.133 846.133 323.733 848.8 321.6C850.933 319.467 852.8 318.667 854.4 319.2C856.533 319.2 858.667 319.467 860.8 320C862.4 320.533 863.467 320.8 864 320.8C865.067 320.8 865.867 321.067 866.4 321.6C868 321.6 869.6 321.6 871.2 321.6C872.8 321.6 874.667 321.333 876.8 320.8C878.933 320.267 880.533 320.8 881.6 322.4C882.667 322.4 883.733 322.4 884.8 322.4L891.2 320.8C893.333 320.267 894.667 321.067 895.2 323.2L904.8 320.8C906.933 320.267 908.267 321.067 908.8 323.2C908.8 323.733 908.8 324 908.8 324C909.867 324 910.667 324 911.2 324L916.8 321.6C918.933 320.533 920.533 321.067 921.6 323.2C922.133 323.733 922.4 324.267 922.4 324.8C925.6 325.333 928.267 326.133 930.4 327.2L935.2 325.6C937.333 325.067 938.933 325.867 940 328C940 329.6 939.467 330.933 938.4 332C941.6 334.133 944.267 336.8 946.4 340C948.533 338.933 950.133 339.467 951.2 341.6C951.733 343.733 951.2 345.333 949.6 346.4C951.733 350.133 953.067 354.133 953.6 358.4C954.133 358.933 954.667 359.467 955.2 360C955.733 361.067 955.467 362.133 954.4 363.2C955.467 371.2 954.4 379.2 951.2 387.2C948.533 394.667 943.733 400.533 936.8 404.8C933.6 406.4 930.4 407.733 927.2 408.8C924 409.333 920.533 409.867 916.8 410.4C915.2 410.4 913.6 410.4 912 410.4C910.4 410.4 908.8 410.4 907.2 410.4C905.067 410.4 903.467 410.4 902.4 410.4C895.467 410.4 888.533 410.4 881.6 410.4C874.667 409.867 867.733 409.6 860.8 409.6ZM886.4 342.4L882.4 344C881.867 344 881.6 344 881.6 344L868 347.2C867.467 347.733 866.667 348 865.6 348C865.6 354.933 865.6 361.867 865.6 368.8C865.6 375.733 865.6 382.667 865.6 389.6C865.6 389.6 865.6 389.867 865.6 390.4C872 390.4 878.133 390.667 884 391.2C890.4 391.2 896.533 391.2 902.4 391.2C903.467 391.2 905.333 390.667 908 389.6L920 385.6L933.6 380C934.667 377.333 935.2 374.667 935.2 372L927.2 374.4L916 378.4L903.2 383.2C901.067 384.267 899.467 383.733 898.4 381.6C897.333 379.467 898.133 377.867 900.8 376.8L912.8 371.2C913.333 371.2 913.6 371.2 913.6 371.2L924.8 368L935.2 364C934.667 360.267 933.6 356.8 932 353.6L922.4 356L910.4 360.8L896 365.6C893.867 366.133 892.267 365.333 891.2 363.2C890.667 361.067 891.467 359.467 893.6 358.4L908 354.4L920 349.6L927.2 347.2C926.667 347.2 926.4 346.933 926.4 346.4C923.2 344.267 918.4 343.2 912 343.2L899.2 348L888 351.2C885.333 352.267 883.733 351.733 883.2 349.6C882.667 346.933 883.467 345.333 885.6 344.8L892.8 342.4C890.667 342.4 888.533 342.4 886.4 342.4ZM864.8 616.8C864.267 616.8 864 616.8 864 616.8C863.467 616.8 863.2 616.8 863.2 616.8L856 616C854.933 616 853.867 615.2 852.8 613.6C851.2 612 850.4 610.667 850.4 609.6C849.867 600.533 849.333 591.2 848.8 581.6C848.8 572 848.533 562.667 848 553.6C846.933 553.6 846.133 552.8 845.6 551.2C845.067 550.667 844.8 550.4 844.8 550.4C844.267 549.867 843.733 549.067 843.2 548C842.133 545.867 843.733 543.733 848 541.6C847.467 541.067 847.2 540 847.2 538.4C846.667 535.733 846.133 533.333 845.6 531.2C845.6 529.067 846.667 526.667 848.8 524C849.333 524 850.133 523.733 851.2 523.2C852.8 522.667 853.6 522.4 853.6 522.4C858.4 521.867 863.2 521.6 868 521.6C873.333 521.6 878.4 521.6 883.2 521.6C888 521.6 892.8 521.6 897.6 521.6C902.4 521.067 907.2 520.8 912 520.8C913.067 520.8 914.667 520.8 916.8 520.8C922.133 520.267 927.467 520.267 932.8 520.8C938.667 520.8 944 522.4 948.8 525.6C958.4 531.467 964.533 539.733 967.2 550.4C969.867 560.533 969.6 570.933 966.4 581.6C963.2 591.733 957.067 599.733 948 605.6C944.8 607.733 941.067 609.333 936.8 610.4C933.067 610.933 929.333 611.733 925.6 612.8C922.933 613.333 920.267 613.6 917.6 613.6C914.933 613.6 912.267 613.6 909.6 613.6C902.133 614.133 894.667 614.933 887.2 616C879.733 616.533 872.267 616.8 864.8 616.8ZM915.2 540L900.8 545.6L887.2 552C886.667 552 886.4 552 886.4 552L875.2 555.2C873.067 556.267 871.467 555.733 870.4 553.6C870.4 553.067 869.333 553.067 867.2 553.6C867.733 560.533 868 567.733 868 575.2C868.533 582.667 869.067 590.133 869.6 597.6C876 597.067 882.4 596.533 888.8 596C895.2 595.467 901.6 594.933 908 594.4C910.133 594.4 912.267 594.4 914.4 594.4C917.067 594.4 919.467 594.133 921.6 593.6C924.267 593.067 926.933 592.533 929.6 592C932.8 591.467 935.467 590.667 937.6 589.6C940.8 587.467 943.467 584.533 945.6 580.8L940 582.4L926.4 588C926.4 588 926.133 588 925.6 588L912 591.2C909.333 592.267 907.733 591.467 907.2 588.8C906.667 586.667 907.467 585.333 909.6 584.8L924 580.8L937.6 576L948.8 572C950.4 566.133 949.6 562.133 946.4 560L932 564.8L918.4 569.6L905.6 574.4C903.467 574.933 901.867 574.133 900.8 572C900.267 569.867 901.067 568.267 903.2 567.2L916 563.2L929.6 557.6L947.2 551.2C945.6 547.467 942.933 544.533 939.2 542.4C939.2 542.4 939.2 542.133 939.2 541.6L933.6 544L920 548.8L906.4 552L894.4 557.6C892.267 558.133 890.667 557.333 889.6 555.2C888.533 553.067 889.067 551.467 891.2 550.4L904 545.6C904.533 545.067 904.8 544.8 904.8 544.8L918.4 541.6L924.8 539.2C923.733 539.2 921.6 539.2 918.4 539.2C917.333 539.733 916.267 540 915.2 540ZM875.2 542.4L867.2 545.6L875.2 542.4Z" fill="url(#paint1_linear_271_66)"/>
<defs>
<linearGradient id="paint0_linear_271_66" x1="284" y1="0" x2="284" y2="748" gradientUnits="userSpaceOnUse">
<stop offset="0.185" stop-color="#FB923C"/>
<stop offset="0.61" stop-color="#4285F4"/>
<stop offset="1" stop-color="#FF33EC"/>
</linearGradient>
<linearGradient id="paint1_linear_271_66" x1="878.5" y1="0" x2="878.5" y2="747" gradientUnits="userSpaceOnUse">
<stop offset="0.185" stop-color="#FB923C"/>
<stop offset="0.61" stop-color="#4285F4"/>
<stop offset="1" stop-color="#FF33EC"/>
</linearGradient>
</defs>
</svg>
